<svg width="19" height="21" viewBox="0 0 19 21" fill="none" xmlns="http://www.w3.org/2000/svg">
<path d="M9.69363 20.1085C11.0841 20.1085 12.212 18.99 12.212 17.6099H7.17521C7.17521 18.99 8.30312 20.1085 9.69363 20.1085ZM18.1733 14.2637C17.4127 13.4532 15.9895 12.234 15.9895 8.2401C15.9895 5.20663 13.8447 2.7783 10.9526 2.18254V1.36893C10.9526 0.679082 10.3889 0.119629 9.69363 0.119629C8.99837 0.119629 8.43462 0.679082 8.43462 1.36893V2.18254C5.54259 2.7783 3.39778 5.20663 3.39778 8.2401C3.39778 12.234 1.9746 13.4532 1.21399 14.2637C0.97778 14.5155 0.873059 14.8165 0.875027 15.1113C0.879358 15.7515 1.38603 16.3606 2.13876 16.3606H17.2485C18.0012 16.3606 18.5083 15.7515 18.5122 15.1113C18.5142 14.8165 18.4095 14.5151 18.1733 14.2637Z" fill="white"/>
</svg>
