<svg width="62" height="67" viewBox="0 0 62 67" fill="none" xmlns="http://www.w3.org/2000/svg">
<path d="M61.3187 16.3887C61.2629 15.8319 61.0645 15.2983 60.7424 14.8376C60.4202 14.377 59.9847 14.0045 59.4766 13.7549L32.5839 0.503482C32.1169 0.27317 31.6018 0.153259 31.0796 0.153259C30.5574 0.153259 30.0423 0.27317 29.5753 0.503482L2.68263 13.7549C2.17595 14.0059 1.74176 14.3789 1.42033 14.8393C1.09889 15.2997 0.900598 15.8326 0.843844 16.3887C0.806866 16.7431 -2.38664 52.0583 29.7165 66.128C30.1454 66.3188 30.6107 66.4175 31.0813 66.4175C31.5519 66.4175 32.0171 66.3188 32.4461 66.128C64.5492 52.0583 61.3557 16.7465 61.3187 16.3887V16.3887ZM31.0813 59.446C8.32673 48.6063 7.25102 25.4725 7.43591 18.8236L31.0813 7.17228L54.7098 18.817C54.8342 25.4063 53.6072 48.6924 31.0813 59.446Z" fill="#DA72FF"/>
<path d="M27.7172 35.2257L20.0091 27.6293L15.2559 32.3137L27.7172 44.5945L46.9018 25.688L42.1485 21.0036L27.7172 35.2257Z" fill="#DA72FF"/>
</svg>
