<svg width="22" height="21" viewBox="0 0 22 21" fill="none" xmlns="http://www.w3.org/2000/svg">
<path fill-rule="evenodd" clip-rule="evenodd" d="M3.69981 0.287211C2.60083 0.557414 1.64798 1.34277 1.14397 2.39388C0.749689 3.21604 0.765349 2.87685 0.765811 10.5819C0.766216 17.3488 0.769336 17.5465 0.88254 18.0189C1.21724 19.4148 2.39482 20.5653 3.81059 20.8796C4.16898 20.9591 4.76684 20.9718 8.13014 20.9718H12.0338V16.8701V12.7683L10.5169 12.7529L9.00001 12.7374V11.235V9.73258L10.5115 9.71721L12.0229 9.70179L12.048 8.12812C12.0699 6.75116 12.0885 6.49806 12.1963 6.10368C12.503 4.98178 13.2025 4.13824 14.1927 3.69595C14.9446 3.36004 15.6316 3.28273 17.228 3.35409C17.8478 3.38177 18.4025 3.41951 18.4604 3.43788C18.5591 3.4692 18.5648 3.55859 18.5503 4.83952L18.5348 6.20769L17.3213 6.23878C16.005 6.27247 15.8182 6.31211 15.479 6.6297C15.1269 6.95948 15.0757 7.18311 15.0495 8.50465L15.0256 9.70369H16.6214C17.4989 9.70369 18.217 9.71178 18.217 9.72166C18.217 9.73154 18.1661 10.1054 18.1039 10.5524C18.0418 10.9995 17.9629 11.596 17.9288 11.878C17.8946 12.16 17.8516 12.4753 17.8332 12.5785L17.7996 12.7663H16.4192H15.0387V16.869V20.9718H16.5436C17.6851 20.9718 18.1561 20.9498 18.4939 20.8809C19.9518 20.5834 21.1802 19.3551 21.4778 17.8972C21.5574 17.5066 21.5686 16.5993 21.5683 10.5296C21.5678 3.7657 21.5651 3.59615 21.4501 3.11636C21.1865 2.01689 20.3953 1.05188 19.3438 0.547706C18.5206 0.152976 18.866 0.168694 11.1267 0.173317C4.47398 0.177304 4.12495 0.182678 3.69981 0.287211Z" fill="#4290FC"/>
</svg>
