<svg width="23" height="22" viewBox="0 0 23 22" fill="none" xmlns="http://www.w3.org/2000/svg">
<path d="M22.1346 11.1661C22.1346 17.1449 17.2885 21.9893 11.3115 21.9893C5.3344 21.9893 0.488281 17.1449 0.488281 11.1661C0.488281 5.19076 5.3344 0.342896 11.3115 0.342896C17.2885 0.342896 22.1346 5.19076 22.1346 11.1661ZM11.3115 13.3482C10.2027 13.3482 9.30393 14.247 9.30393 15.3557C9.30393 16.4644 10.2027 17.3632 11.3115 17.3632C12.4202 17.3632 13.319 16.4644 13.319 15.3557C13.319 14.247 12.4202 13.3482 11.3115 13.3482ZM9.40549 6.13216L9.72922 12.0675C9.74437 12.3452 9.97401 12.5626 10.2521 12.5626H12.3708C12.6489 12.5626 12.8785 12.3452 12.8937 12.0675L13.2174 6.13216C13.2338 5.83217 12.9949 5.57992 12.6945 5.57992H9.92836C9.62793 5.57992 9.38912 5.83217 9.40549 6.13216Z" fill="#ECB801"/>
</svg>
