<svg width="23" height="16" viewBox="0 0 23 16" fill="none" xmlns="http://www.w3.org/2000/svg">
<path d="M22.9006 1.15867L22.8786 2.06479L17.2857 5.50583L11.7005 8.94688L6.12263 5.54276L0.552042 2.13864L0.530119 1.19559L0.507812 0.259848H11.7151H22.9225L22.9006 1.15867ZM22.9006 11.9164L22.8786 14.8048L19.828 10.9657C18.1553 8.85842 16.7919 7.09771 16.8065 7.06809C16.8211 7.03117 18.1919 6.16197 19.8572 5.14508L22.8783 3.28091L22.9002 6.15466C22.9079 7.73846 22.9079 10.3249 22.9006 11.9164ZM3.68348 5.25546C5.24574 6.20581 6.54993 7.00925 6.58646 7.04617C6.63069 7.08309 1.09702 14.1713 0.581272 14.739C0.54435 14.7759 0.515119 12.3518 0.515119 9.07995V3.34744L0.677423 3.4359C0.765497 3.48705 2.12122 4.30472 3.68348 5.25546ZM9.7256 8.95457C10.7867 9.60301 11.6709 10.1334 11.6928 10.1334C11.7148 10.1334 12.6655 9.56609 13.7928 8.87342C15.7308 7.67961 15.8558 7.61346 15.9515 7.74615C16.0031 7.8273 17.4253 9.61032 19.098 11.7179L22.1487 15.5494L16.9319 15.5717C14.0655 15.579 9.36445 15.579 6.48339 15.5717L1.25163 15.5494L4.39846 11.5922C7.1026 8.19537 7.56682 7.65 7.67758 7.70884C7.75104 7.74615 8.67217 8.30613 9.7256 8.95457Z" fill="#4290FC"/>
</svg>
