<svg width="34" height="38" viewBox="0 0 34 38" fill="none" xmlns="http://www.w3.org/2000/svg">
<path d="M3.71496 8.0536V25.6681L16.649 32.8536L29.583 25.6681V8.0536C25.3545 8.20012 21.1374 7.12941 17.4536 4.91912L16.649 4.43634L15.8443 4.91912C12.1605 7.12941 7.94343 8.20012 3.71496 8.0536ZM0.0195312 3.8222C4.75182 5.00527 9.76026 4.25999 13.943 1.75032L16.649 0.12677L19.3549 1.75032C23.5377 4.25999 28.5461 5.00527 33.2784 3.8222V27.8425L16.649 37.0811L0.0195312 27.8425V3.8222Z" fill="#EBEBEB" fill-opacity="0.85"/>
<path d="M12.9532 20.4517V22.2994H20.3441V20.4517H12.9532ZM24.0395 16.7562V25.9948H9.25781V16.7562H24.0395Z" fill="#EBEBEB" fill-opacity="0.85"/>
<path d="M18.4963 16.7562V14.9085C18.4963 13.888 17.6691 13.0608 16.6486 13.0608C15.6281 13.0608 14.8009 13.888 14.8009 14.9085V16.7562H18.4963ZM16.6486 9.36536C19.71 9.36536 22.1918 11.8471 22.1918 14.9085V20.4516H11.1055V14.9085C11.1055 11.8471 13.5872 9.36536 16.6486 9.36536Z" fill="#EBEBEB" fill-opacity="0.85"/>
</svg>
