<svg width="106" height="106" viewBox="0 0 106 106" fill="none" xmlns="http://www.w3.org/2000/svg">
<circle cx="53.334" cy="53.3285" r="52.5567" fill="#2A2A2C"/>
<path d="M53.2179 26.8895L28.5977 34.6509V49.7284C28.5977 62.8338 35.0231 75.1757 45.7745 82.7463L53.2179 87.9629L60.6612 82.7463C71.4126 75.2393 77.8381 62.8974 77.8381 49.7284V34.6509L53.2179 26.8895ZM74.4027 49.7284C74.4027 61.7523 68.5498 73.0127 58.689 79.8834L53.2179 83.7005L47.7467 79.8834C37.8859 73.0127 32.033 61.6886 32.033 49.7284V37.132L53.2179 30.4521L74.4027 37.132V49.7284V49.7284Z" fill="#ECECEC"/>
<path d="M46.0274 46.3567V49.792H43.3555V65.7602H63.0771V49.792H60.4051V46.3567C60.4051 42.4123 57.1606 39.1678 53.2163 39.1678C49.272 39.1678 46.0274 42.4123 46.0274 46.3567ZM54.8703 61.8795H51.5622L52.1348 57.6171C51.5622 57.2354 51.1805 56.5992 51.1805 55.8994C51.1805 54.7542 52.0711 53.8636 53.2163 53.8636C54.3614 53.8636 55.2521 54.7542 55.2521 55.8994C55.2521 56.5992 54.8704 57.2354 54.2978 57.6171L54.8703 61.8795ZM49.0175 46.3567C49.0175 44.0028 50.926 42.1579 53.2163 42.1579C55.5701 42.1579 57.4151 44.0664 57.4151 46.3567V49.792H49.0175V46.3567Z" fill="#ECECEC"/>
</svg>
