<svg width="105" height="104" viewBox="0 0 105 104" fill="none" xmlns="http://www.w3.org/2000/svg">
<circle cx="52.6247" cy="52.0655" r="51.6559" fill="#2A2A2C"/>
<path d="M35.589 78.5907C36.0266 78.5907 36.468 78.452 36.8412 78.1672L43.8831 72.774C44.4061 72.8501 41.1239 72.836 41.6641 72.836L61.1282 72.8581C61.5628 72.8581 62.0121 72.8581 62.4725 72.8096C62.8169 72.7734 63.7953 71.9048 64.0421 71.658L78.283 57.4171C79.1504 56.5497 79.6145 55.3454 79.5561 54.1128C79.4978 52.8833 78.9214 51.728 77.9731 50.9435C76.2543 49.5213 73.613 49.7024 71.9599 51.3567L65.6067 57.7105C65.0107 57.36 64.3398 57.1697 63.6566 57.1697C63.6554 57.1697 63.6547 57.1697 63.6535 57.1697C63.5258 57.1642 60.526 57.0512 59.7992 57.0445C59.2947 57.0488 58.776 57.0592 58.2475 57.0696C55.6227 57.1224 52.9102 57.1758 50.4671 56.5393C49.9073 56.3926 49.3702 56.2367 48.8472 56.0844C46.2206 55.3214 43.7395 54.6008 40.5616 55.6995C37.7834 56.6534 35.1433 58.5078 32.2552 61.5347L26.843 66.4447C26.0217 67.1856 25.9438 68.4698 26.6669 69.3052L34.0323 77.8799C34.4362 78.3482 35.0101 78.5913 35.589 78.5907ZM28.0971 67.8302L33.5369 62.8955C33.5535 62.8802 33.5701 62.8642 33.5854 62.8483C36.2679 60.0326 38.6778 58.3225 41.1712 57.4668C43.7892 56.5626 45.7915 57.1427 48.326 57.8793C48.8644 58.0358 49.4174 58.196 49.9951 58.3476C52.6898 59.0492 55.6626 58.9903 58.2855 58.9388C58.8067 58.9283 59.318 58.9179 59.8164 58.9142C60.3517 58.9074 62.5124 58.9928 63.6148 59.0388C64.1728 59.0388 64.6989 59.2579 65.0973 59.6563C65.4956 60.0541 65.7148 60.5808 65.7148 61.1387C65.7148 62.3001 64.7725 63.2448 63.6148 63.2448C63.6148 63.2448 49.8655 63.2448 49.752 63.2448C49.2486 63.2448 48.6385 63.812 48.7121 64.3601C48.811 65.0955 49.8471 65.1661 50.4204 65.1146H63.6155C65.8044 65.1146 67.5845 63.3314 67.5845 61.1394C67.5845 60.3721 67.3641 59.6385 66.9572 59.0063L73.2834 52.6801C74.2618 51.701 75.7995 51.5715 76.7834 52.3854C77.3347 52.8415 77.6569 53.4867 77.6907 54.2018C77.7245 54.9095 77.4587 55.6001 76.9627 56.0961L62.7217 70.3371C62.2914 70.7674 61.1392 70.9896 61.1294 70.9896H60.8403C60.8403 70.9896 43.2981 70.8693 43.0771 71.0387L35.7074 76.6829C35.627 76.7443 35.5135 76.7345 35.4508 76.6608L28.0824 68.0843C28.0167 68.0082 28.0222 67.8977 28.0971 67.8302Z" fill="#ECECEC"/>
<path d="M59.595 33.3271C56.284 33.3271 53.5898 36.0212 53.5898 39.3322C53.5898 42.6433 56.284 45.3374 59.595 45.3374C62.906 45.3374 65.6001 42.6433 65.6001 39.3322C65.6001 36.0212 62.9066 33.3271 59.595 33.3271ZM59.595 43.4032C57.3465 43.4032 55.524 41.5807 55.524 39.3322C55.524 37.0838 57.3465 35.2613 59.595 35.2613C61.8435 35.2613 63.666 37.0838 63.666 39.3322C63.666 41.5807 61.8435 43.4032 59.595 43.4032Z" fill="#ECECEC"/>
<path d="M73.2405 32.4014L72.4192 30.9785C71.8005 29.9074 70.6477 29.242 69.4102 29.242C68.8025 29.242 68.2028 29.4028 67.6755 29.7073L67.1623 30.0032C66.1747 29.2015 65.0735 28.5649 63.8875 28.1119V27.5208C63.8875 25.6056 62.3296 24.0477 60.4145 24.0477H58.7712C56.8561 24.0477 55.2981 25.6056 55.2981 27.5208V28.1119C54.1104 28.5662 53.0079 29.2033 52.019 30.0068L51.5108 29.7073C50.9835 29.4028 50.3838 29.242 49.7761 29.242C48.538 29.242 47.3852 29.9074 46.7664 30.9792L45.9451 32.402C44.9875 34.0606 45.5578 36.1888 47.2164 37.1464L47.7228 37.4385C47.6215 38.0647 47.5706 38.7018 47.5706 39.3328C47.5706 39.9639 47.6215 40.601 47.7228 41.2271L47.2164 41.5193C45.5584 42.4769 44.9882 44.6051 45.9451 46.263L46.7664 47.6859C47.3852 48.7571 48.538 49.4225 49.7755 49.4225C50.3832 49.4225 50.9829 49.2616 51.5102 48.9572L52.0233 48.6613C53.011 49.463 54.1122 50.0989 55.2981 50.5525V51.1437C55.2981 53.0588 56.8561 54.6167 58.7712 54.6167H60.4145C62.3296 54.6167 63.8875 53.0588 63.8875 51.1437V50.5525C65.0753 50.0983 66.1778 49.4611 67.1666 48.6576L67.6749 48.9572C68.2022 49.2616 68.8025 49.4225 69.4096 49.4225C70.6471 49.4225 71.8005 48.7571 72.4192 47.6853L73.2405 46.2624C74.1981 44.6039 73.6279 42.4757 71.9693 41.5187L71.4629 41.2265C71.5642 40.6004 71.6151 39.9633 71.6151 39.3322C71.6151 38.7012 71.5642 38.064 71.4629 37.4379L71.9693 37.1457C73.6279 36.1882 74.1981 34.06 73.2405 32.4014ZM71.0025 35.4706L70.466 35.7806C69.7908 36.1704 69.4188 36.9321 69.5465 37.7013C69.6349 38.2322 69.6815 38.7767 69.6815 39.3328C69.6815 39.889 69.6349 40.4335 69.5465 40.9644C69.4188 41.7336 69.7908 42.4953 70.466 42.8851L71.0025 43.1951C71.7385 43.6199 71.9908 44.5609 71.566 45.2969L70.7447 46.7197C70.4599 47.2133 69.9424 47.4895 69.4102 47.4895C69.1493 47.4895 68.8848 47.4232 68.6423 47.2832L68.0997 46.9702C67.805 46.8002 67.4772 46.7154 67.1513 46.7154C66.7327 46.7154 66.3171 46.8554 65.9783 47.1329C65.1379 47.8216 64.1846 48.3759 63.1497 48.7657C62.4235 49.0394 61.9533 49.7441 61.9533 50.52V51.1449C61.9533 51.9944 61.2646 52.6838 60.4145 52.6838H58.7712C57.9217 52.6838 57.2323 51.995 57.2323 51.1449V50.5188C57.2323 49.7429 56.7621 49.0376 56.036 48.7644C55.001 48.3746 54.0478 47.8203 53.2074 47.1316C52.8686 46.8542 52.453 46.7142 52.0344 46.7142C51.7084 46.7142 51.3806 46.7989 51.086 46.969L50.5434 47.282C50.3009 47.422 50.0363 47.4883 49.7755 47.4883C49.2439 47.4883 48.7264 47.212 48.4416 46.7185L47.6203 45.2956C47.1955 44.5597 47.4478 43.6186 48.1838 43.1939L48.7203 42.8839C49.3955 42.4941 49.7675 41.7323 49.6398 40.9632C49.5514 40.4322 49.5048 39.8878 49.5048 39.3316C49.5048 38.7755 49.5514 38.231 49.6398 37.7C49.7675 36.9309 49.3955 36.1691 48.7203 35.7794L48.1838 35.4694C47.4478 35.0446 47.1955 34.1036 47.6203 33.3676L48.4416 31.9447C48.7264 31.4512 49.2439 31.175 49.7761 31.175C50.037 31.175 50.3015 31.2413 50.544 31.3812L51.0866 31.6943C51.3813 31.8643 51.709 31.949 52.035 31.949C52.4536 31.949 52.8698 31.8091 53.208 31.5316C54.0484 30.8435 55.0017 30.2886 56.0366 29.8988C56.7628 29.625 57.2329 28.9204 57.2329 28.1445V27.5196C57.2329 26.67 57.9217 25.9807 58.7718 25.9807H60.4151C61.2646 25.9807 61.954 26.6694 61.954 27.5196V28.1445C61.954 28.9204 62.4242 29.6257 63.1503 29.8988C64.1852 30.2886 65.1385 30.8429 65.9789 31.5316C66.3177 31.8091 66.7333 31.949 67.1519 31.949C67.4779 31.949 67.8056 31.8643 68.1003 31.6943L68.6429 31.3812C68.8854 31.2413 69.1499 31.175 69.4108 31.175C69.9424 31.175 70.4599 31.4512 70.7447 31.9447L71.566 33.3676C71.9902 34.1048 71.7385 35.0458 71.0025 35.4706Z" fill="#ECECEC"/>
</svg>
