<svg width="66" height="46" viewBox="0 0 66 46" fill="none" xmlns="http://www.w3.org/2000/svg">
<path fill-rule="evenodd" clip-rule="evenodd" d="M21.5966 0.679892C21.5966 0.719669 21.3877 0.749554 21.109 0.749554C20.8304 0.749554 20.6214 0.77944 20.6214 0.819217C20.6214 0.858994 20.4124 0.888879 20.1337 0.888879C19.8551 0.888879 19.6461 0.918764 19.6461 0.958542C19.6461 0.997274 19.4603 1.0282 19.2281 1.0282C18.9959 1.0282 18.8101 1.05913 18.8101 1.09787C18.8101 1.1366 18.6244 1.16753 18.3922 1.16753C18.16 1.16753 17.9742 1.19846 17.9742 1.23719C17.9742 1.27551 17.8175 1.30685 17.6259 1.30685C17.4343 1.30685 17.2776 1.3382 17.2776 1.37652C17.2776 1.41483 17.1522 1.44618 16.9989 1.44618C16.8457 1.44618 16.7203 1.47753 16.7203 1.51584C16.7203 1.55416 16.5949 1.5855 16.4416 1.5855C16.2884 1.5855 16.163 1.61685 16.163 1.65517C16.163 1.69348 16.0689 1.72483 15.954 1.72483C15.839 1.72483 15.745 1.75618 15.745 1.79449C15.745 1.83281 15.6823 1.86415 15.6057 1.86415C15.529 1.86415 15.4664 1.8955 15.4664 1.93382C15.4664 1.97213 15.3723 2.00348 15.2574 2.00348C15.1424 2.00348 15.0484 2.03483 15.0484 2.07314C15.0484 2.11146 14.9857 2.1428 14.9091 2.1428C14.8324 2.1428 14.7697 2.17415 14.7697 2.21247C14.7697 2.25078 14.6757 2.28213 14.5607 2.28213C14.4458 2.28213 14.3518 2.31348 14.3518 2.35179C14.3518 2.3901 14.2891 2.42145 14.2124 2.42145C14.1358 2.42145 14.0731 2.4528 14.0731 2.49112C14.0731 2.52943 13.9791 2.56078 13.8641 2.56078C13.7492 2.56078 13.6551 2.59213 13.6551 2.63044C13.6551 2.66875 13.5924 2.7001 13.5158 2.7001C13.4392 2.7001 13.3765 2.73145 13.3765 2.76977C13.3765 2.80808 13.2824 2.83943 13.1675 2.83943C13.0525 2.83943 12.9585 2.87078 12.9585 2.90909C12.9585 2.9474 12.8958 2.97875 12.8192 2.97875C12.7425 2.97875 12.6799 3.0101 12.6799 3.04841C12.6799 3.08673 12.6172 3.11808 12.5405 3.11808C12.4639 3.11808 12.4012 3.14943 12.4012 3.18774C12.4012 3.22605 12.3072 3.2574 12.1922 3.2574C12.0773 3.2574 11.9832 3.28875 11.9832 3.32706C11.9832 3.36538 11.9205 3.39673 11.8439 3.39673C11.7673 3.39673 11.7046 3.42808 11.7046 3.46639C11.7046 3.5047 11.6565 3.53605 11.5978 3.53605C11.4591 3.53605 11.008 3.98719 11.008 4.12588C11.008 4.18461 10.9766 4.23268 10.9383 4.23268C10.9 4.23268 10.8686 4.29537 10.8686 4.372C10.8686 4.44863 10.8373 4.51133 10.799 4.51133C10.7607 4.51133 10.7293 4.57402 10.7293 4.65065C10.7293 4.72728 10.698 4.78998 10.6596 4.78998C10.6213 4.78998 10.59 4.85267 10.59 4.9293C10.59 5.00593 10.5586 5.06863 10.5203 5.06863C10.482 5.06863 10.4507 5.16267 10.4507 5.27761C10.4507 5.39256 10.4193 5.4866 10.381 5.4866C10.3427 5.4866 10.3113 5.5493 10.3113 5.62592C10.3113 5.70255 10.28 5.76525 10.2417 5.76525C10.2034 5.76525 10.172 5.85929 10.172 5.97424C10.172 6.08918 10.1407 6.18322 10.1023 6.18322C10.064 6.18322 10.0327 6.26382 10.0327 6.36233C10.0327 6.56393 9.88862 6.74052 9.72415 6.74052C9.66396 6.74052 9.61471 6.77187 9.61471 6.81019C9.61471 6.8485 9.52066 6.87985 9.40572 6.87985C9.29078 6.87985 9.19673 6.9112 9.19673 6.94951C9.19673 6.98783 9.14901 7.01917 9.0907 7.01917C8.95277 7.01917 8.22146 7.75049 8.22146 7.88842C8.22146 7.94673 8.19011 7.99445 8.15179 7.99445C8.11348 7.99445 8.08213 8.08849 8.08213 8.20344C8.08213 8.31838 8.05078 8.41242 8.01247 8.41242C7.97416 8.41242 7.94281 8.50647 7.94281 8.62141C7.94281 8.73635 7.91146 8.8304 7.87314 8.8304C7.83483 8.8304 7.80348 8.89309 7.80348 8.96972C7.80348 9.04635 7.77213 9.10905 7.73382 9.10905C7.69551 9.10905 7.66416 9.20309 7.66416 9.31803C7.66416 9.43298 7.63281 9.52702 7.59449 9.52702C7.55618 9.52702 7.52483 9.62107 7.52483 9.73601C7.52483 9.85095 7.49348 9.945 7.45517 9.945C7.41686 9.945 7.38551 10.039 7.38551 10.154C7.38551 10.2689 7.35416 10.363 7.31584 10.363C7.27753 10.363 7.24618 10.4257 7.24618 10.5023C7.24618 10.5789 7.21483 10.6416 7.17652 10.6416C7.13821 10.6416 7.10686 10.7357 7.10686 10.8506C7.10686 10.9656 7.07551 11.0596 7.0372 11.0596C6.99888 11.0596 6.96753 11.1536 6.96753 11.2686C6.96753 11.3835 6.93618 11.4776 6.89787 11.4776C6.85956 11.4776 6.82821 11.5716 6.82821 11.6866C6.82821 11.8015 6.79686 11.8955 6.75855 11.8955C6.72023 11.8955 6.68888 11.9896 6.68888 12.1045C6.68888 12.2195 6.65753 12.3135 6.61922 12.3135C6.58091 12.3135 6.54956 12.3762 6.54956 12.4528C6.54956 12.5295 6.51821 12.5922 6.4799 12.5922C6.44158 12.5922 6.41023 12.6862 6.41023 12.8012C6.41023 12.9161 6.37889 13.0101 6.34057 13.0101C6.30226 13.0101 6.27091 13.1042 6.27091 13.2191C6.27091 13.3341 6.23956 13.4281 6.20125 13.4281C6.16293 13.4281 6.13158 13.5222 6.13158 13.6371C6.13158 13.752 6.10024 13.8461 6.06192 13.8461C6.02361 13.8461 5.99226 13.9401 5.99226 14.0551C5.99226 14.17 5.96091 14.2641 5.9226 14.2641C5.88428 14.2641 5.85293 14.3581 5.85293 14.4731C5.85293 14.588 5.82159 14.682 5.78327 14.682C5.74496 14.682 5.71361 14.7761 5.71361 14.891C5.71361 15.006 5.68226 15.1 5.64395 15.1C5.60563 15.1 5.57428 15.1941 5.57428 15.309C5.57428 15.4239 5.54294 15.518 5.50462 15.518C5.46631 15.518 5.43496 15.612 5.43496 15.727C5.43496 15.8419 5.40361 15.936 5.3653 15.936C5.32698 15.936 5.29563 16.03 5.29563 16.145C5.29563 16.2599 5.26429 16.3539 5.22597 16.3539C5.18766 16.3539 5.15631 16.448 5.15631 16.5629C5.15631 16.6779 5.12496 16.7719 5.08665 16.7719C5.04833 16.7719 5.01698 16.866 5.01698 16.9809C5.01698 17.0958 4.98564 17.1899 4.94732 17.1899C4.90901 17.1899 4.87766 17.2839 4.87766 17.3989C4.87766 17.5138 4.84631 17.6079 4.808 17.6079C4.76968 17.6079 4.73833 17.7019 4.73833 17.8169C4.73833 17.9318 4.70699 18.0258 4.66867 18.0258C4.63036 18.0258 4.59901 18.1199 4.59901 18.2348C4.59901 18.3498 4.56766 18.4438 4.52935 18.4438C4.49103 18.4438 4.45968 18.5379 4.45968 18.6528C4.45968 18.7677 4.42834 18.8618 4.39002 18.8618C4.35171 18.8618 4.32036 18.9558 4.32036 19.0708C4.32036 19.1857 4.28901 19.2798 4.2507 19.2798C4.21238 19.2798 4.18103 19.3738 4.18103 19.4887C4.18103 19.6037 4.14969 19.6977 4.11137 19.6977C4.07306 19.6977 4.04171 19.8231 4.04171 19.9764C4.04171 20.1296 4.01036 20.255 3.97205 20.255C3.93373 20.255 3.90239 20.3491 3.90239 20.464C3.90239 20.579 3.87104 20.673 3.83272 20.673C3.79441 20.673 3.76306 20.7671 3.76306 20.882C3.76306 20.9969 3.73171 21.091 3.6934 21.091C3.65508 21.091 3.62374 21.2164 3.62374 21.3696C3.62374 21.5229 3.59239 21.6483 3.55407 21.6483C3.51576 21.6483 3.48441 21.7423 3.48441 21.8573C3.48441 21.9722 3.45306 22.0663 3.41475 22.0663C3.37643 22.0663 3.34509 22.1917 3.34509 22.3449C3.34509 22.4982 3.31374 22.6236 3.27542 22.6236C3.23711 22.6236 3.20576 22.7176 3.20576 22.8325C3.20576 22.9475 3.17441 23.0415 3.1361 23.0415C3.09778 23.0415 3.06644 23.1356 3.06644 23.2505C3.06644 23.3655 3.03509 23.4595 2.99677 23.4595C2.95846 23.4595 2.92711 23.5849 2.92711 23.7382C2.92711 23.8914 2.89576 24.0168 2.85745 24.0168C2.81913 24.0168 2.78779 24.1422 2.78779 24.2955C2.78779 24.4487 2.75644 24.5741 2.71812 24.5741C2.67981 24.5741 2.64846 24.6995 2.64846 24.8528C2.64846 25.006 2.61711 25.1314 2.5788 25.1314C2.54048 25.1314 2.50914 25.2255 2.50914 25.3404C2.50914 25.4553 2.47779 25.5494 2.43947 25.5494C2.40116 25.5494 2.36981 25.6748 2.36981 25.828C2.36981 25.9813 2.33846 26.1067 2.30015 26.1067C2.26183 26.1067 2.23049 26.2321 2.23049 26.3853C2.23049 26.5386 2.19914 26.664 2.16082 26.664C2.12251 26.664 2.09116 26.7894 2.09116 26.9426C2.09116 27.0959 2.05981 27.2213 2.0215 27.2213C1.98318 27.2213 1.95184 27.378 1.95184 27.5696C1.95184 27.7612 1.92049 27.9179 1.88217 27.9179C1.84386 27.9179 1.81251 28.0433 1.81251 28.1966C1.81251 28.3498 1.78116 28.4752 1.74285 28.4752C1.70454 28.4752 1.67319 28.6319 1.67319 28.8235C1.67319 29.0151 1.64184 29.1718 1.60352 29.1718C1.56521 29.1718 1.53386 29.3286 1.53386 29.5201C1.53386 29.7117 1.50251 29.8685 1.4642 29.8685C1.42589 29.8685 1.39454 30.0252 1.39454 30.2168C1.39454 30.4083 1.36319 30.5651 1.32487 30.5651C1.28614 30.5651 1.25521 30.7509 1.25521 30.9831C1.25521 31.2152 1.22428 31.401 1.18555 31.401C1.14494 31.401 1.11589 31.6332 1.11589 31.9583C1.11589 32.2834 1.08684 32.5156 1.04622 32.5156C1.00157 32.5156 0.976562 33.1658 0.976562 34.3268C0.976562 35.4879 1.00157 36.1381 1.04622 36.1381C1.086 36.1381 1.11589 36.3471 1.11589 36.6257C1.11589 36.9044 1.14577 37.1133 1.18555 37.1133C1.22386 37.1133 1.25521 37.2701 1.25521 37.4617C1.25521 37.6532 1.28656 37.81 1.32487 37.81C1.36319 37.81 1.39454 37.9354 1.39454 38.0886C1.39454 38.2419 1.42589 38.3673 1.4642 38.3673C1.50251 38.3673 1.53386 38.4927 1.53386 38.6459C1.53386 38.7992 1.56521 38.9246 1.60352 38.9246C1.64184 38.9246 1.67319 39.0186 1.67319 39.1336C1.67319 39.2485 1.70454 39.3425 1.74285 39.3425C1.78116 39.3425 1.81251 39.4366 1.81251 39.5515C1.81251 39.6665 1.84386 39.7605 1.88217 39.7605C1.92049 39.7605 1.95184 39.8232 1.95184 39.8998C1.95184 39.9765 1.98318 40.0392 2.0215 40.0392C2.05981 40.0392 2.09116 40.1332 2.09116 40.2482C2.09116 40.3631 2.12251 40.4571 2.16082 40.4571C2.19914 40.4571 2.23049 40.5129 2.23049 40.5811C2.23049 40.6493 2.29318 40.7502 2.36981 40.8055C2.44644 40.8607 2.50914 40.9616 2.50914 41.0298C2.50914 41.098 2.54048 41.1538 2.5788 41.1538C2.61711 41.1538 2.64846 41.2039 2.64846 41.2652C2.64846 41.3264 2.74251 41.4644 2.85745 41.5717C2.97239 41.6791 3.06644 41.8018 3.06644 41.8445C3.06644 41.9533 4.22896 43.1043 4.33882 43.1043C4.38835 43.1043 4.4741 43.167 4.52935 43.2436C4.58459 43.3203 4.67863 43.383 4.73833 43.383C4.79804 43.383 4.89208 43.4457 4.94732 43.5223C5.00256 43.5989 5.10351 43.6616 5.1717 43.6616C5.23983 43.6616 5.29563 43.693 5.29563 43.7313C5.29563 43.7696 5.35143 43.8009 5.41956 43.8009C5.48776 43.8009 5.5887 43.8636 5.64395 43.9403C5.69919 44.0169 5.80013 44.0796 5.86833 44.0796C5.93646 44.0796 5.99226 44.1109 5.99226 44.1493C5.99226 44.1876 6.0863 44.2189 6.20125 44.2189C6.31619 44.2189 6.41023 44.2503 6.41023 44.2886C6.41023 44.3269 6.47293 44.3582 6.54956 44.3582C6.62619 44.3582 6.68888 44.3896 6.68888 44.4279C6.68888 44.4662 6.75158 44.4976 6.82821 44.4976C6.90484 44.4976 6.96753 44.5289 6.96753 44.5672C6.96753 44.6055 7.06158 44.6369 7.17652 44.6369C7.29146 44.6369 7.38551 44.6682 7.38551 44.7066C7.38551 44.7449 7.47955 44.7762 7.59449 44.7762C7.70944 44.7762 7.80348 44.8076 7.80348 44.8459C7.80348 44.8842 7.89753 44.9155 8.01247 44.9155C8.12741 44.9155 8.22146 44.9469 8.22146 44.9852C8.22146 45.0235 8.3155 45.0549 8.43044 45.0549C8.54539 45.0549 8.63943 45.0862 8.63943 45.1245C8.63943 45.1628 8.76482 45.1942 8.91808 45.1942C9.07134 45.1942 9.19673 45.1628 9.19673 45.1245C9.19673 45.0862 9.29078 45.0549 9.40572 45.0549C9.52066 45.0549 9.61471 45.0235 9.61471 44.9852C9.61471 44.9469 9.6774 44.9155 9.75403 44.9155C9.83066 44.9155 9.89336 44.8842 9.89336 44.8459C9.89336 44.8076 9.94135 44.7762 10.0001 44.7762C10.0587 44.7762 10.4496 44.4314 10.8686 44.0099C11.2876 43.5885 11.6638 43.2436 11.7046 43.2436C11.7453 43.2436 12.1215 42.8988 12.5405 42.4774C12.9595 42.0559 13.3357 41.7111 13.3765 41.7111C13.4172 41.7111 13.7934 41.3662 14.2124 40.9448C14.6314 40.5233 15.0076 40.1785 15.0484 40.1785C15.0891 40.1785 15.4653 39.8337 15.8843 39.4122C16.3033 38.9907 16.6795 38.6459 16.7203 38.6459C16.761 38.6459 17.1372 38.3011 17.5562 37.8796C17.9752 37.4582 18.3514 37.1133 18.3922 37.1133C18.4329 37.1133 18.8091 36.7685 19.2281 36.3471C19.6471 35.9256 20.0237 35.5808 20.0648 35.5808C20.106 35.5808 20.3878 35.33 20.691 35.0235L21.2423 34.4662H33.0213H44.8002L45.3515 35.0235C45.6548 35.33 45.9366 35.5808 45.9777 35.5808C46.0189 35.5808 46.3954 35.9256 46.8145 36.3471C47.2335 36.7685 47.6096 37.1133 47.6504 37.1133C47.6912 37.1133 48.0673 37.4582 48.4863 37.8796C48.9054 38.3011 49.2815 38.6459 49.3223 38.6459C49.3631 38.6459 49.7392 38.9907 50.1582 39.4122C50.5773 39.8337 50.9534 40.1785 50.9942 40.1785C51.035 40.1785 51.4111 40.5233 51.8301 40.9448C52.2492 41.3662 52.6253 41.7111 52.6661 41.7111C52.7068 41.7111 53.083 42.0559 53.502 42.4774C53.9211 42.8988 54.2972 43.2436 54.338 43.2436C54.3787 43.2436 54.7549 43.5885 55.1739 44.0099C55.593 44.4314 55.9838 44.7762 56.0425 44.7762C56.1012 44.7762 56.1492 44.8076 56.1492 44.8459C56.1492 44.8842 56.2119 44.9155 56.2885 44.9155C56.3652 44.9155 56.4279 44.9469 56.4279 44.9852C56.4279 45.0235 56.5219 45.0549 56.6369 45.0549C56.7518 45.0549 56.8458 45.0862 56.8458 45.1245C56.8458 45.1628 56.9712 45.1942 57.1245 45.1942C57.2777 45.1942 57.4031 45.1628 57.4031 45.1245C57.4031 45.0862 57.4972 45.0549 57.6121 45.0549C57.7271 45.0549 57.8211 45.0235 57.8211 44.9852C57.8211 44.9469 57.9152 44.9155 58.0301 44.9155C58.145 44.9155 58.2391 44.8842 58.2391 44.8459C58.2391 44.8076 58.3331 44.7762 58.4481 44.7762C58.563 44.7762 58.6571 44.7449 58.6571 44.7066C58.6571 44.6682 58.7511 44.6369 58.8661 44.6369C58.981 44.6369 59.075 44.6055 59.075 44.5672C59.075 44.5289 59.1377 44.4976 59.2144 44.4976C59.291 44.4976 59.3537 44.4662 59.3537 44.4279C59.3537 44.3896 59.4164 44.3582 59.493 44.3582C59.5696 44.3582 59.6323 44.3269 59.6323 44.2886C59.6323 44.2503 59.7264 44.2189 59.8413 44.2189C59.9563 44.2189 60.0503 44.1876 60.0503 44.1493C60.0503 44.1109 60.1061 44.0796 60.1742 44.0796C60.2424 44.0796 60.3434 44.0169 60.3986 43.9403C60.4539 43.8636 60.5548 43.8009 60.623 43.8009C60.6911 43.8009 60.7469 43.7696 60.7469 43.7313C60.7469 43.693 60.8027 43.6616 60.8709 43.6616C60.9391 43.6616 61.04 43.5989 61.0953 43.5223C61.1505 43.4457 61.2445 43.383 61.3042 43.383C61.3639 43.383 61.458 43.3203 61.5132 43.2436C61.5685 43.167 61.6542 43.1043 61.7038 43.1043C61.8136 43.1043 62.9761 41.9533 62.9761 41.8445C62.9761 41.8018 63.0702 41.6791 63.1851 41.5717C63.3001 41.4644 63.3941 41.3264 63.3941 41.2652C63.3941 41.2039 63.4255 41.1538 63.4638 41.1538C63.5021 41.1538 63.5334 41.098 63.5334 41.0298C63.5334 40.9616 63.5961 40.8607 63.6728 40.8055C63.7494 40.7502 63.8121 40.6493 63.8121 40.5811C63.8121 40.5129 63.8434 40.4571 63.8817 40.4571C63.9201 40.4571 63.9514 40.3631 63.9514 40.2482C63.9514 40.1332 63.9828 40.0392 64.0211 40.0392C64.0594 40.0392 64.0907 39.9765 64.0907 39.8998C64.0907 39.8232 64.1221 39.7605 64.1604 39.7605C64.1987 39.7605 64.2301 39.6665 64.2301 39.5515C64.2301 39.4366 64.2614 39.3425 64.2997 39.3425C64.338 39.3425 64.3694 39.2485 64.3694 39.1336C64.3694 39.0186 64.4007 38.9246 64.439 38.9246C64.4774 38.9246 64.5087 38.7992 64.5087 38.6459C64.5087 38.4927 64.5401 38.3673 64.5784 38.3673C64.6167 38.3673 64.648 38.2419 64.648 38.0886C64.648 37.9354 64.6794 37.81 64.7177 37.81C64.756 37.81 64.7874 37.6532 64.7874 37.4617C64.7874 37.2701 64.8187 37.1133 64.857 37.1133C64.8968 37.1133 64.9267 36.9044 64.9267 36.6257C64.9267 36.3471 64.9566 36.1381 64.9963 36.1381C65.041 36.1381 65.066 35.4879 65.066 34.3268C65.066 33.1658 65.041 32.5156 64.9963 32.5156C64.9557 32.5156 64.9267 32.2834 64.9267 31.9583C64.9267 31.6332 64.8976 31.401 64.857 31.401C64.8183 31.401 64.7874 31.2152 64.7874 30.9831C64.7874 30.7509 64.7564 30.5651 64.7177 30.5651C64.6794 30.5651 64.648 30.4083 64.648 30.2168C64.648 30.0252 64.6167 29.8685 64.5784 29.8685C64.5401 29.8685 64.5087 29.7117 64.5087 29.5201C64.5087 29.3286 64.4774 29.1718 64.439 29.1718C64.4007 29.1718 64.3694 29.0151 64.3694 28.8235C64.3694 28.6319 64.338 28.4752 64.2997 28.4752C64.2614 28.4752 64.2301 28.3498 64.2301 28.1966C64.2301 28.0433 64.1987 27.9179 64.1604 27.9179C64.1221 27.9179 64.0907 27.7925 64.0907 27.6393C64.0907 27.486 64.0594 27.3606 64.0211 27.3606C63.9828 27.3606 63.9514 27.2039 63.9514 27.0123C63.9514 26.8207 63.9201 26.664 63.8817 26.664C63.8434 26.664 63.8121 26.5386 63.8121 26.3853C63.8121 26.2321 63.7807 26.1067 63.7424 26.1067C63.7041 26.1067 63.6728 25.9813 63.6728 25.828C63.6728 25.6748 63.6414 25.5494 63.6031 25.5494C63.5648 25.5494 63.5334 25.4553 63.5334 25.3404C63.5334 25.2255 63.5021 25.1314 63.4638 25.1314C63.4255 25.1314 63.3941 25.006 63.3941 24.8528C63.3941 24.6995 63.3628 24.5741 63.3245 24.5741C63.2861 24.5741 63.2548 24.4487 63.2548 24.2955C63.2548 24.1422 63.2234 24.0168 63.1851 24.0168C63.1468 24.0168 63.1155 23.9228 63.1155 23.8078C63.1155 23.6929 63.0841 23.5988 63.0458 23.5988C63.0075 23.5988 62.9761 23.4734 62.9761 23.3202C62.9761 23.1669 62.9448 23.0415 62.9065 23.0415C62.8682 23.0415 62.8368 22.9475 62.8368 22.8325C62.8368 22.7176 62.8055 22.6236 62.7672 22.6236C62.7288 22.6236 62.6975 22.4982 62.6975 22.3449C62.6975 22.1917 62.6661 22.0663 62.6278 22.0663C62.5895 22.0663 62.5582 21.9722 62.5582 21.8573C62.5582 21.7423 62.5268 21.6483 62.4885 21.6483C62.4502 21.6483 62.4188 21.5229 62.4188 21.3696C62.4188 21.2164 62.3875 21.091 62.3492 21.091C62.3109 21.091 62.2795 20.9969 62.2795 20.882C62.2795 20.7671 62.2482 20.673 62.2099 20.673C62.1715 20.673 62.1402 20.579 62.1402 20.464C62.1402 20.3491 62.1088 20.255 62.0705 20.255C62.0322 20.255 62.0009 20.161 62.0009 20.046C62.0009 19.9311 61.9695 19.8371 61.9312 19.8371C61.8929 19.8371 61.8615 19.7117 61.8615 19.5584C61.8615 19.4052 61.8302 19.2798 61.7919 19.2798C61.7536 19.2798 61.7222 19.1857 61.7222 19.0708C61.7222 18.9558 61.6909 18.8618 61.6526 18.8618C61.6142 18.8618 61.5829 18.7677 61.5829 18.6528C61.5829 18.5379 61.5515 18.4438 61.5132 18.4438C61.4749 18.4438 61.4436 18.3498 61.4436 18.2348C61.4436 18.1199 61.4122 18.0258 61.3739 18.0258C61.3356 18.0258 61.3042 17.9318 61.3042 17.8169C61.3042 17.7019 61.2729 17.6079 61.2346 17.6079C61.1963 17.6079 61.1649 17.5138 61.1649 17.3989C61.1649 17.2839 61.1336 17.1899 61.0953 17.1899C61.0569 17.1899 61.0256 17.0958 61.0256 16.9809C61.0256 16.866 60.9942 16.7719 60.9559 16.7719C60.9176 16.7719 60.8863 16.6779 60.8863 16.5629C60.8863 16.448 60.8549 16.3539 60.8166 16.3539C60.7783 16.3539 60.7469 16.2599 60.7469 16.145C60.7469 16.03 60.7156 15.936 60.6773 15.936C60.639 15.936 60.6076 15.8419 60.6076 15.727C60.6076 15.612 60.5763 15.518 60.538 15.518C60.4996 15.518 60.4683 15.4239 60.4683 15.309C60.4683 15.1941 60.4369 15.1 60.3986 15.1C60.3603 15.1 60.329 15.006 60.329 14.891C60.329 14.7761 60.2976 14.682 60.2593 14.682C60.221 14.682 60.1896 14.588 60.1896 14.4731C60.1896 14.3581 60.1583 14.2641 60.12 14.2641C60.0817 14.2641 60.0503 14.17 60.0503 14.0551C60.0503 13.9401 60.019 13.8461 59.9807 13.8461C59.9423 13.8461 59.911 13.752 59.911 13.6371C59.911 13.5222 59.8796 13.4281 59.8413 13.4281C59.803 13.4281 59.7717 13.3341 59.7717 13.2191C59.7717 13.1042 59.7403 13.0101 59.702 13.0101C59.6637 13.0101 59.6323 12.9161 59.6323 12.8012C59.6323 12.6862 59.601 12.5922 59.5627 12.5922C59.5244 12.5922 59.493 12.5295 59.493 12.4528C59.493 12.3762 59.4617 12.3135 59.4234 12.3135C59.385 12.3135 59.3537 12.2195 59.3537 12.1045C59.3537 11.9896 59.3223 11.8955 59.284 11.8955C59.2457 11.8955 59.2144 11.8015 59.2144 11.6866C59.2144 11.5716 59.183 11.4776 59.1447 11.4776C59.1064 11.4776 59.075 11.3835 59.075 11.2686C59.075 11.1536 59.0437 11.0596 59.0054 11.0596C58.9671 11.0596 58.9357 10.9656 58.9357 10.8506C58.9357 10.7357 58.9044 10.6416 58.8661 10.6416C58.8277 10.6416 58.7964 10.5789 58.7964 10.5023C58.7964 10.4257 58.765 10.363 58.7267 10.363C58.6884 10.363 58.6571 10.2689 58.6571 10.154C58.6571 10.039 58.6257 9.945 58.5874 9.945C58.5491 9.945 58.5177 9.85095 58.5177 9.73601C58.5177 9.62107 58.4864 9.52702 58.4481 9.52702C58.4098 9.52702 58.3784 9.43298 58.3784 9.31803C58.3784 9.20309 58.3471 9.10905 58.3088 9.10905C58.2704 9.10905 58.2391 9.04635 58.2391 8.96972C58.2391 8.89309 58.2077 8.8304 58.1694 8.8304C58.1311 8.8304 58.0998 8.73635 58.0998 8.62141C58.0998 8.50647 58.0684 8.41242 58.0301 8.41242C57.9918 8.41242 57.9604 8.31838 57.9604 8.20344C57.9604 8.08849 57.9291 7.99445 57.8908 7.99445C57.8525 7.99445 57.8211 7.94673 57.8211 7.88842C57.8211 7.75049 57.0898 7.01917 56.9519 7.01917C56.8936 7.01917 56.8458 6.98783 56.8458 6.94951C56.8458 6.9112 56.7518 6.87985 56.6369 6.87985C56.5219 6.87985 56.4279 6.8485 56.4279 6.81019C56.4279 6.77187 56.3786 6.74052 56.3184 6.74052C56.154 6.74052 56.0099 6.56393 56.0099 6.36233C56.0099 6.26382 55.9785 6.18322 55.9402 6.18322C55.9019 6.18322 55.8706 6.08918 55.8706 5.97424C55.8706 5.85929 55.8392 5.76525 55.8009 5.76525C55.7626 5.76525 55.7312 5.70255 55.7312 5.62592C55.7312 5.5493 55.6999 5.4866 55.6616 5.4866C55.6233 5.4866 55.5919 5.39256 55.5919 5.27761C55.5919 5.16267 55.5606 5.06863 55.5223 5.06863C55.4839 5.06863 55.4526 5.00593 55.4526 4.9293C55.4526 4.85267 55.4212 4.78998 55.3829 4.78998C55.3446 4.78998 55.3133 4.72728 55.3133 4.65065C55.3133 4.57402 55.2819 4.51133 55.2436 4.51133C55.2053 4.51133 55.1739 4.44863 55.1739 4.372C55.1739 4.29537 55.1426 4.23268 55.1043 4.23268C55.066 4.23268 55.0346 4.18461 55.0346 4.12588C55.0346 3.98719 54.5835 3.53605 54.4448 3.53605C54.3861 3.53605 54.338 3.5047 54.338 3.46639C54.338 3.42808 54.2753 3.39673 54.1987 3.39673C54.122 3.39673 54.0593 3.36538 54.0593 3.32706C54.0593 3.28875 53.9653 3.2574 53.8504 3.2574C53.7354 3.2574 53.6414 3.22605 53.6414 3.18774C53.6414 3.14943 53.5787 3.11808 53.502 3.11808C53.4254 3.11808 53.3627 3.08673 53.3627 3.04841C53.3627 3.0101 53.3 2.97875 53.2234 2.97875C53.1468 2.97875 53.0841 2.9474 53.0841 2.90909C53.0841 2.87078 52.99 2.83943 52.8751 2.83943C52.7601 2.83943 52.6661 2.80808 52.6661 2.76977C52.6661 2.73145 52.6034 2.7001 52.5268 2.7001C52.4501 2.7001 52.3874 2.66875 52.3874 2.63044C52.3874 2.59213 52.2934 2.56078 52.1785 2.56078C52.0635 2.56078 51.9695 2.52943 51.9695 2.49112C51.9695 2.4528 51.9068 2.42145 51.8301 2.42145C51.7535 2.42145 51.6908 2.3901 51.6908 2.35179C51.6908 2.31348 51.5968 2.28213 51.4818 2.28213C51.3669 2.28213 51.2728 2.25078 51.2728 2.21247C51.2728 2.17415 51.2102 2.1428 51.1335 2.1428C51.0569 2.1428 50.9942 2.11146 50.9942 2.07314C50.9942 2.03483 50.9002 2.00348 50.7852 2.00348C50.6703 2.00348 50.5762 1.97213 50.5762 1.93382C50.5762 1.8955 50.5135 1.86415 50.4369 1.86415C50.3603 1.86415 50.2976 1.83281 50.2976 1.79449C50.2976 1.75618 50.2035 1.72483 50.0886 1.72483C49.9736 1.72483 49.8796 1.69348 49.8796 1.65517C49.8796 1.61685 49.7542 1.5855 49.6009 1.5855C49.4477 1.5855 49.3223 1.55416 49.3223 1.51584C49.3223 1.47753 49.1969 1.44618 49.0436 1.44618C48.8904 1.44618 48.765 1.41483 48.765 1.37652C48.765 1.3382 48.6083 1.30685 48.4167 1.30685C48.2251 1.30685 48.0684 1.27551 48.0684 1.23719C48.0684 1.19846 47.8826 1.16753 47.6504 1.16753C47.4182 1.16753 47.2324 1.1366 47.2324 1.09787C47.2324 1.05913 47.0466 1.0282 46.8145 1.0282C46.5823 1.0282 46.3965 0.997274 46.3965 0.958542C46.3965 0.918764 46.1875 0.888879 45.9088 0.888879C45.6302 0.888879 45.4212 0.858994 45.4212 0.819217C45.4212 0.77944 45.2122 0.749554 44.9336 0.749554C44.6549 0.749554 44.4459 0.719669 44.4459 0.679892C44.4459 0.638582 44.1905 0.610229 43.819 0.610229C43.4475 0.610229 43.192 0.638582 43.192 0.679892C43.192 0.718206 43.1293 0.749554 43.0527 0.749554C42.9761 0.749554 42.9134 0.780902 42.9134 0.819217C42.9134 0.857531 42.8576 0.888879 42.7894 0.888879C42.7212 0.888879 42.6203 0.951575 42.565 1.0282C42.5098 1.10483 42.4158 1.16753 42.3561 1.16753C42.2964 1.16753 42.2023 1.23023 42.1471 1.30685C42.0918 1.38348 41.9978 1.44618 41.9381 1.44618C41.8784 1.44618 41.7843 1.50887 41.7291 1.5855C41.6739 1.66213 41.5798 1.72483 41.5201 1.72483C41.4604 1.72483 41.3664 1.78752 41.3111 1.86415C41.2559 1.94078 41.1618 2.00348 41.1021 2.00348C41.0424 2.00348 40.9484 2.06617 40.8931 2.1428C40.8379 2.21943 40.737 2.28213 40.6688 2.28213C40.6006 2.28213 40.5448 2.31348 40.5448 2.35179C40.5448 2.39777 37.9905 2.42145 33.0213 2.42145C28.0521 2.42145 25.4977 2.39777 25.4977 2.35179C25.4977 2.31348 25.4419 2.28213 25.3738 2.28213C25.3056 2.28213 25.2047 2.21943 25.1494 2.1428C25.0942 2.06617 25.0001 2.00348 24.9404 2.00348C24.8807 2.00348 24.7867 1.94078 24.7315 1.86415C24.6762 1.78752 24.5822 1.72483 24.5225 1.72483C24.4628 1.72483 24.3687 1.66213 24.3135 1.5855C24.2582 1.50887 24.1642 1.44618 24.1045 1.44618C24.0448 1.44618 23.9507 1.38348 23.8955 1.30685C23.8403 1.23023 23.7462 1.16753 23.6865 1.16753C23.6268 1.16753 23.5328 1.10483 23.4775 1.0282C23.4223 0.951575 23.3213 0.888879 23.2531 0.888879C23.185 0.888879 23.1292 0.857531 23.1292 0.819217C23.1292 0.780902 23.0665 0.749554 22.9899 0.749554C22.9133 0.749554 22.8506 0.718206 22.8506 0.679892C22.8506 0.638582 22.5951 0.610229 22.2236 0.610229C21.8521 0.610229 21.5966 0.638582 21.5966 0.679892ZM22.0843 4.372C22.1395 4.44863 22.2336 4.51133 22.2933 4.51133C22.353 4.51133 22.447 4.57402 22.5023 4.65065C22.5575 4.72728 22.6515 4.78998 22.7112 4.78998C22.7709 4.78998 22.865 4.85267 22.9202 4.9293C22.9755 5.00593 23.0695 5.06863 23.1292 5.06863C23.1889 5.06863 23.283 5.13132 23.3382 5.20795C23.3934 5.28458 23.4875 5.34728 23.5472 5.34728C23.6069 5.34728 23.7009 5.40997 23.7562 5.4866C23.8114 5.56323 23.9124 5.62592 23.9806 5.62592C24.0487 5.62592 24.1045 5.65727 24.1045 5.69559C24.1045 5.7339 24.1672 5.76525 24.2438 5.76525C24.3204 5.76525 24.3831 5.7966 24.3831 5.83491C24.3831 5.88096 27.309 5.90457 33.0213 5.90457C38.7336 5.90457 41.6594 5.88096 41.6594 5.83491C41.6594 5.7966 41.7221 5.76525 41.7988 5.76525C41.8754 5.76525 41.9381 5.7339 41.9381 5.69559C41.9381 5.65727 41.9939 5.62592 42.062 5.62592C42.1302 5.62592 42.2311 5.56323 42.2864 5.4866C42.3416 5.40997 42.4357 5.34728 42.4954 5.34728C42.5551 5.34728 42.6491 5.28458 42.7044 5.20795C42.7596 5.13132 42.8537 5.06863 42.9134 5.06863C42.9731 5.06863 43.0671 5.00593 43.1223 4.9293C43.1776 4.85267 43.2716 4.78998 43.3313 4.78998C43.391 4.78998 43.4851 4.72728 43.5403 4.65065C43.5956 4.57402 43.6896 4.51133 43.7493 4.51133C43.809 4.51133 43.903 4.44863 43.9583 4.372C44.0282 4.27496 44.1386 4.23268 44.322 4.23268C44.4668 4.23268 44.5853 4.26402 44.5853 4.30234C44.5853 4.34212 44.7942 4.372 45.0729 4.372C45.3515 4.372 45.5605 4.40189 45.5605 4.44166C45.5605 4.4804 45.7463 4.51133 45.9785 4.51133C46.2107 4.51133 46.3965 4.54226 46.3965 4.58099C46.3965 4.61972 46.5823 4.65065 46.8145 4.65065C47.0466 4.65065 47.2324 4.68158 47.2324 4.72031C47.2324 4.75905 47.4182 4.78998 47.6504 4.78998C47.8826 4.78998 48.0684 4.82091 48.0684 4.85964C48.0684 4.89795 48.1938 4.9293 48.347 4.9293C48.5003 4.9293 48.6257 4.96065 48.6257 4.99896C48.6257 5.03728 48.7197 5.06863 48.8347 5.06863C48.9496 5.06863 49.0436 5.09997 49.0436 5.13829C49.0436 5.1766 49.1063 5.20795 49.183 5.20795C49.2596 5.20795 49.3223 5.2393 49.3223 5.27761C49.3223 5.31593 49.4163 5.34728 49.5313 5.34728C49.6462 5.34728 49.7403 5.37862 49.7403 5.41694C49.7403 5.45525 49.803 5.4866 49.8796 5.4866C49.9562 5.4866 50.0189 5.51795 50.0189 5.55626C50.0189 5.59458 50.113 5.62592 50.2279 5.62592C50.3429 5.62592 50.4369 5.65727 50.4369 5.69559C50.4369 5.7339 50.4996 5.76525 50.5762 5.76525C50.6529 5.76525 50.7155 5.7966 50.7155 5.83491C50.7155 5.87323 50.8096 5.90457 50.9245 5.90457C51.0395 5.90457 51.1335 5.93592 51.1335 5.97424C51.1335 6.01255 51.1962 6.0439 51.2728 6.0439C51.3495 6.0439 51.4122 6.07525 51.4122 6.11356C51.4122 6.15188 51.5062 6.18322 51.6212 6.18322C51.7361 6.18322 51.8301 6.21457 51.8301 6.25289C51.8301 6.2912 51.8794 6.32255 51.9396 6.32255C52.0804 6.32255 52.2481 6.4903 52.2481 6.63108C52.2481 6.69127 52.2795 6.74052 52.3178 6.74052C52.3561 6.74052 52.3874 6.80322 52.3874 6.87985C52.3874 6.95648 52.4188 7.01917 52.4571 7.01917C52.4954 7.01917 52.5268 7.11322 52.5268 7.22816C52.5268 7.3431 52.5581 7.43715 52.5964 7.43715C52.6369 7.43715 52.6661 7.66425 52.6661 7.97905C52.6661 8.44105 52.6866 8.53579 52.8054 8.62141C52.882 8.67665 52.9447 8.76296 52.9447 8.81326C52.9447 8.94025 53.4042 9.3877 53.5346 9.3877C53.5933 9.3877 53.6414 9.41904 53.6414 9.45736C53.6414 9.49567 53.7041 9.52702 53.7807 9.52702C53.8573 9.52702 53.92 9.55837 53.92 9.59668C53.92 9.635 53.9827 9.66635 54.0593 9.66635C54.136 9.66635 54.1987 9.69769 54.1987 9.73601C54.1987 9.77432 54.2614 9.80567 54.338 9.80567C54.4146 9.80567 54.4773 9.83702 54.4773 9.87533C54.4773 9.91365 54.5266 9.945 54.5868 9.945C54.7275 9.945 54.8953 10.1127 54.8953 10.2535C54.8953 10.3137 54.9266 10.363 54.965 10.363C55.0033 10.363 55.0346 10.457 55.0346 10.572C55.0346 10.6869 55.066 10.7809 55.1043 10.7809C55.1426 10.7809 55.1739 10.875 55.1739 10.9899C55.1739 11.1049 55.2053 11.1989 55.2436 11.1989C55.2819 11.1989 55.3133 11.293 55.3133 11.4079C55.3133 11.5229 55.3446 11.6169 55.3829 11.6169C55.4212 11.6169 55.4526 11.6796 55.4526 11.7562C55.4526 11.8328 55.4839 11.8955 55.5223 11.8955C55.5606 11.8955 55.5919 11.9896 55.5919 12.1045C55.5919 12.2195 55.6233 12.3135 55.6616 12.3135C55.6999 12.3135 55.7312 12.4076 55.7312 12.5225C55.7312 12.6374 55.7626 12.7315 55.8009 12.7315C55.8392 12.7315 55.8706 12.8255 55.8706 12.9405C55.8706 13.0554 55.9019 13.1495 55.9402 13.1495C55.9785 13.1495 56.0099 13.2435 56.0099 13.3585C56.0099 13.4734 56.0412 13.5674 56.0796 13.5674C56.1179 13.5674 56.1492 13.6301 56.1492 13.7068C56.1492 13.7834 56.1806 13.8461 56.2189 13.8461C56.2572 13.8461 56.2885 13.9401 56.2885 14.0551C56.2885 14.17 56.3199 14.2641 56.3582 14.2641C56.3965 14.2641 56.4279 14.3581 56.4279 14.4731C56.4279 14.588 56.4592 14.682 56.4975 14.682C56.5358 14.682 56.5672 14.7761 56.5672 14.891C56.5672 15.006 56.5985 15.1 56.6369 15.1C56.6752 15.1 56.7065 15.1941 56.7065 15.309C56.7065 15.4239 56.7379 15.518 56.7762 15.518C56.8145 15.518 56.8458 15.612 56.8458 15.727C56.8458 15.8419 56.8772 15.936 56.9155 15.936C56.9538 15.936 56.9852 16.03 56.9852 16.145C56.9852 16.2599 57.0165 16.3539 57.0548 16.3539C57.0931 16.3539 57.1245 16.448 57.1245 16.5629C57.1245 16.6779 57.1558 16.7719 57.1942 16.7719C57.2325 16.7719 57.2638 16.866 57.2638 16.9809C57.2638 17.0958 57.2952 17.1899 57.3335 17.1899C57.3718 17.1899 57.4031 17.2839 57.4031 17.3989C57.4031 17.5138 57.4345 17.6079 57.4728 17.6079C57.5111 17.6079 57.5425 17.7019 57.5425 17.8169C57.5425 17.9318 57.5738 18.0258 57.6121 18.0258C57.6504 18.0258 57.6818 18.1199 57.6818 18.2348C57.6818 18.3498 57.7131 18.4438 57.7515 18.4438C57.7898 18.4438 57.8211 18.5379 57.8211 18.6528C57.8211 18.7677 57.8525 18.8618 57.8908 18.8618C57.9291 18.8618 57.9604 18.9558 57.9604 19.0708C57.9604 19.1857 57.9918 19.2798 58.0301 19.2798C58.0684 19.2798 58.0998 19.3738 58.0998 19.4887C58.0998 19.6037 58.1311 19.6977 58.1694 19.6977C58.2077 19.6977 58.2391 19.8231 58.2391 19.9764C58.2391 20.1296 58.2704 20.255 58.3088 20.255C58.3471 20.255 58.3784 20.3491 58.3784 20.464C58.3784 20.579 58.4098 20.673 58.4481 20.673C58.4864 20.673 58.5177 20.7671 58.5177 20.882C58.5177 20.9969 58.5491 21.091 58.5874 21.091C58.6257 21.091 58.6571 21.185 58.6571 21.3C58.6571 21.4149 58.6884 21.509 58.7267 21.509C58.765 21.509 58.7964 21.6344 58.7964 21.7876C58.7964 21.9409 58.8277 22.0663 58.8661 22.0663C58.9044 22.0663 58.9357 22.1603 58.9357 22.2752C58.9357 22.3902 58.9671 22.4842 59.0054 22.4842C59.0437 22.4842 59.075 22.5783 59.075 22.6932C59.075 22.8082 59.1064 22.9022 59.1447 22.9022C59.183 22.9022 59.2144 23.0276 59.2144 23.1809C59.2144 23.3341 59.2457 23.4595 59.284 23.4595C59.3223 23.4595 59.3537 23.5536 59.3537 23.6685C59.3537 23.7834 59.385 23.8775 59.4234 23.8775C59.4617 23.8775 59.493 24.0029 59.493 24.1561C59.493 24.3094 59.5244 24.4348 59.5627 24.4348C59.601 24.4348 59.6323 24.5288 59.6323 24.6438C59.6323 24.7587 59.6637 24.8528 59.702 24.8528C59.7403 24.8528 59.7717 24.9781 59.7717 25.1314C59.7717 25.2847 59.803 25.4101 59.8413 25.4101C59.8796 25.4101 59.911 25.5041 59.911 25.619C59.911 25.734 59.9423 25.828 59.9807 25.828C60.019 25.828 60.0503 25.9534 60.0503 26.1067C60.0503 26.2599 60.0817 26.3853 60.12 26.3853C60.1583 26.3853 60.1896 26.5107 60.1896 26.664C60.1896 26.8172 60.221 26.9426 60.2593 26.9426C60.2976 26.9426 60.329 27.068 60.329 27.2213C60.329 27.3745 60.3603 27.4999 60.3986 27.4999C60.4369 27.4999 60.4683 27.6253 60.4683 27.7786C60.4683 27.9318 60.4996 28.0572 60.538 28.0572C60.5763 28.0572 60.6076 28.1826 60.6076 28.3359C60.6076 28.4891 60.639 28.6145 60.6773 28.6145C60.7156 28.6145 60.7469 28.7713 60.7469 28.9628C60.7469 29.1544 60.7783 29.3112 60.8166 29.3112C60.8549 29.3112 60.8863 29.4365 60.8863 29.5898C60.8863 29.7431 60.9176 29.8685 60.9559 29.8685C60.9942 29.8685 61.0256 30.0252 61.0256 30.2168C61.0256 30.4083 61.0569 30.5651 61.0953 30.5651C61.134 30.5651 61.1649 30.7509 61.1649 30.9831C61.1649 31.2152 61.1958 31.401 61.2346 31.401C61.2733 31.401 61.3042 31.5868 61.3042 31.819C61.3042 32.0512 61.3352 32.237 61.3739 32.237C61.4145 32.237 61.4436 32.4692 61.4436 32.7943C61.4436 33.1194 61.4726 33.3516 61.5132 33.3516C61.5561 33.3516 61.5829 33.6999 61.5829 34.2572C61.5829 34.8145 61.5561 35.1628 61.5132 35.1628C61.4726 35.1628 61.4436 35.395 61.4436 35.7201C61.4436 36.0452 61.4145 36.2774 61.3739 36.2774C61.3352 36.2774 61.3042 36.4632 61.3042 36.6954C61.3042 36.9276 61.2733 37.1133 61.2346 37.1133C61.1963 37.1133 61.1649 37.2387 61.1649 37.392C61.1649 37.5453 61.1336 37.6706 61.0953 37.6706C61.0569 37.6706 61.0256 37.7647 61.0256 37.8796C61.0256 37.9946 60.9942 38.0886 60.9559 38.0886C60.9176 38.0886 60.8863 38.1827 60.8863 38.2976C60.8863 38.4126 60.8549 38.5066 60.8166 38.5066C60.7783 38.5066 60.7469 38.5693 60.7469 38.6459C60.7469 38.7225 60.7156 38.7852 60.6773 38.7852C60.639 38.7852 60.6076 38.8479 60.6076 38.9246C60.6076 39.0012 60.5763 39.0639 60.538 39.0639C60.4996 39.0639 60.4683 39.1197 60.4683 39.1878C60.4683 39.256 60.4056 39.357 60.329 39.4122C60.2523 39.4674 60.1896 39.5534 60.1896 39.6032C60.1896 39.7213 59.4538 40.4571 59.3357 40.4571C59.2859 40.4571 59.1999 40.5198 59.1447 40.5965C59.0895 40.6731 58.9885 40.7358 58.9203 40.7358C58.8522 40.7358 58.7964 40.7671 58.7964 40.8055C58.7964 40.8438 58.7337 40.8751 58.6571 40.8751C58.5804 40.8751 58.5177 40.9065 58.5177 40.9448C58.5177 40.9831 58.4237 41.0144 58.3088 41.0144C58.1938 41.0144 58.0998 41.0458 58.0998 41.0841C58.0998 41.1224 58.0371 41.1538 57.9604 41.1538C57.8838 41.1538 57.8211 41.1851 57.8211 41.2234C57.8211 41.2617 57.7412 41.2931 57.6436 41.2931C57.5161 41.2931 57.3307 41.1558 56.9852 40.8055C56.7207 40.5373 56.4704 40.3178 56.429 40.3178C56.3876 40.3178 56.0109 39.973 55.5919 39.5515C55.1729 39.1301 54.7967 38.7852 54.756 38.7852C54.7152 38.7852 54.339 38.4404 53.92 38.019C53.501 37.5975 53.1248 37.2527 53.0841 37.2527C53.0433 37.2527 52.6671 36.9078 52.2481 36.4864C51.8291 36.0649 51.4529 35.7201 51.4122 35.7201C51.3714 35.7201 50.9952 35.3753 50.5762 34.9538C50.1572 34.5324 49.781 34.1875 49.7403 34.1875C49.6995 34.1875 49.3233 33.8427 48.9043 33.4212C48.4853 32.9998 48.1091 32.655 48.0682 32.655C48.0273 32.655 47.6826 32.3415 47.3021 31.9583C46.9216 31.5752 46.5622 31.2617 46.5034 31.2617C46.4446 31.2617 46.3965 31.2304 46.3965 31.192C46.3965 31.1537 46.3338 31.1224 46.2572 31.1224C46.1805 31.1224 46.1178 31.091 46.1178 31.0527C46.1178 31.0065 41.7059 30.9831 33.0213 30.9831C24.3367 30.9831 19.9247 31.0065 19.9247 31.0527C19.9247 31.091 19.8621 31.1224 19.7854 31.1224C19.7088 31.1224 19.6461 31.1537 19.6461 31.192C19.6461 31.2304 19.598 31.2617 19.5392 31.2617C19.4804 31.2617 19.121 31.5752 18.7405 31.9583C18.36 32.3415 18.0153 32.655 17.9744 32.655C17.9335 32.655 17.5573 32.9998 17.1382 33.4212C16.7192 33.8427 16.3431 34.1875 16.3023 34.1875C16.2615 34.1875 15.8854 34.5324 15.4664 34.9538C15.0473 35.3753 14.6712 35.7201 14.6304 35.7201C14.5896 35.7201 14.2135 36.0649 13.7945 36.4864C13.3754 36.9078 12.9993 37.2527 12.9585 37.2527C12.9178 37.2527 12.5416 37.5975 12.1226 38.019C11.7035 38.4404 11.3274 38.7852 11.2866 38.7852C11.2459 38.7852 10.8697 39.1301 10.4507 39.5515C10.0316 39.973 9.65497 40.3178 9.61359 40.3178C9.57221 40.3178 9.32191 40.5373 9.05741 40.8055C8.71188 41.1558 8.52651 41.2931 8.39896 41.2931C8.30136 41.2931 8.22146 41.2617 8.22146 41.2234C8.22146 41.1851 8.15876 41.1538 8.08213 41.1538C8.0055 41.1538 7.94281 41.1224 7.94281 41.0841C7.94281 41.0458 7.84876 41.0144 7.73382 41.0144C7.61888 41.0144 7.52483 40.9831 7.52483 40.9448C7.52483 40.9065 7.46214 40.8751 7.38551 40.8751C7.30888 40.8751 7.24618 40.8438 7.24618 40.8055C7.24618 40.7671 7.19038 40.7358 7.12225 40.7358C7.05405 40.7358 6.95311 40.6731 6.89787 40.5965C6.84263 40.5198 6.75673 40.4571 6.70706 40.4571C6.58028 40.4571 5.71361 39.577 5.71361 39.4484C5.71361 39.3901 5.68226 39.3425 5.64395 39.3425C5.60563 39.3425 5.57428 39.2798 5.57428 39.2032C5.57428 39.1266 5.54294 39.0639 5.50462 39.0639C5.46631 39.0639 5.43496 39.0012 5.43496 38.9246C5.43496 38.8479 5.40361 38.7852 5.3653 38.7852C5.32698 38.7852 5.29563 38.7225 5.29563 38.6459C5.29563 38.5693 5.26429 38.5066 5.22597 38.5066C5.18766 38.5066 5.15631 38.4126 5.15631 38.2976C5.15631 38.1827 5.12496 38.0886 5.08665 38.0886C5.04833 38.0886 5.01698 37.9946 5.01698 37.8796C5.01698 37.7647 4.98564 37.6706 4.94732 37.6706C4.90901 37.6706 4.87766 37.5453 4.87766 37.392C4.87766 37.2387 4.84631 37.1133 4.808 37.1133C4.76926 37.1133 4.73833 36.9276 4.73833 36.6954C4.73833 36.4632 4.7074 36.2774 4.66867 36.2774C4.62806 36.2774 4.59901 36.0452 4.59901 35.7201C4.59901 35.395 4.56996 35.1628 4.52935 35.1628C4.4865 35.1628 4.45968 34.8145 4.45968 34.2572C4.45968 33.6999 4.4865 33.3516 4.52935 33.3516C4.56996 33.3516 4.59901 33.1194 4.59901 32.7943C4.59901 32.4692 4.62806 32.237 4.66867 32.237C4.70845 32.237 4.73833 32.028 4.73833 31.7493C4.73833 31.4707 4.76822 31.2617 4.808 31.2617C4.84631 31.2617 4.87766 31.105 4.87766 30.9134C4.87766 30.7218 4.90901 30.5651 4.94732 30.5651C4.98564 30.5651 5.01698 30.4083 5.01698 30.2168C5.01698 30.0252 5.04833 29.8685 5.08665 29.8685C5.12496 29.8685 5.15631 29.7431 5.15631 29.5898C5.15631 29.4365 5.18766 29.3112 5.22597 29.3112C5.26429 29.3112 5.29563 29.1544 5.29563 28.9628C5.29563 28.7713 5.32698 28.6145 5.3653 28.6145C5.40361 28.6145 5.43496 28.4891 5.43496 28.3359C5.43496 28.1826 5.46631 28.0572 5.50462 28.0572C5.54294 28.0572 5.57428 27.9318 5.57428 27.7786C5.57428 27.6253 5.60563 27.4999 5.64395 27.4999C5.68226 27.4999 5.71361 27.3745 5.71361 27.2213C5.71361 27.068 5.74496 26.9426 5.78327 26.9426C5.82159 26.9426 5.85293 26.8172 5.85293 26.664C5.85293 26.5107 5.88428 26.3853 5.9226 26.3853C5.96091 26.3853 5.99226 26.2599 5.99226 26.1067C5.99226 25.9534 6.02361 25.828 6.06192 25.828C6.10024 25.828 6.13158 25.734 6.13158 25.619C6.13158 25.5041 6.16293 25.4101 6.20125 25.4101C6.23956 25.4101 6.27091 25.2847 6.27091 25.1314C6.27091 24.9781 6.30226 24.8528 6.34057 24.8528C6.37889 24.8528 6.41023 24.7274 6.41023 24.5741C6.41023 24.4209 6.44158 24.2955 6.4799 24.2955C6.51821 24.2955 6.54956 24.2014 6.54956 24.0865C6.54956 23.9715 6.58091 23.8775 6.61922 23.8775C6.65753 23.8775 6.68888 23.7834 6.68888 23.6685C6.68888 23.5536 6.72023 23.4595 6.75855 23.4595C6.79686 23.4595 6.82821 23.3341 6.82821 23.1809C6.82821 23.0276 6.85956 22.9022 6.89787 22.9022C6.93618 22.9022 6.96753 22.8082 6.96753 22.6932C6.96753 22.5783 6.99888 22.4842 7.0372 22.4842C7.07551 22.4842 7.10686 22.3902 7.10686 22.2752C7.10686 22.1603 7.13821 22.0663 7.17652 22.0663C7.21483 22.0663 7.24618 21.9409 7.24618 21.7876C7.24618 21.6344 7.27753 21.509 7.31584 21.509C7.35416 21.509 7.38551 21.4149 7.38551 21.3C7.38551 21.185 7.41686 21.091 7.45517 21.091C7.49348 21.091 7.52483 20.9969 7.52483 20.882C7.52483 20.7671 7.55618 20.673 7.59449 20.673C7.63281 20.673 7.66416 20.579 7.66416 20.464C7.66416 20.3491 7.69551 20.255 7.73382 20.255C7.77213 20.255 7.80348 20.1296 7.80348 19.9764C7.80348 19.8231 7.83483 19.6977 7.87314 19.6977C7.91146 19.6977 7.94281 19.6037 7.94281 19.4887C7.94281 19.3738 7.97416 19.2798 8.01247 19.2798C8.05078 19.2798 8.08213 19.1857 8.08213 19.0708C8.08213 18.9558 8.11348 18.8618 8.15179 18.8618C8.19011 18.8618 8.22146 18.7677 8.22146 18.6528C8.22146 18.5379 8.2528 18.4438 8.29112 18.4438C8.32943 18.4438 8.36078 18.3498 8.36078 18.2348C8.36078 18.1199 8.39213 18.0258 8.43044 18.0258C8.46876 18.0258 8.50011 17.9318 8.50011 17.8169C8.50011 17.7019 8.53145 17.6079 8.56977 17.6079C8.60808 17.6079 8.63943 17.5138 8.63943 17.3989C8.63943 17.2839 8.67078 17.1899 8.70909 17.1899C8.74741 17.1899 8.77876 17.0958 8.77876 16.9809C8.77876 16.866 8.8101 16.7719 8.84842 16.7719C8.88673 16.7719 8.91808 16.6779 8.91808 16.5629C8.91808 16.448 8.94943 16.3539 8.98774 16.3539C9.02606 16.3539 9.05741 16.2599 9.05741 16.145C9.05741 16.03 9.08875 15.936 9.12707 15.936C9.16538 15.936 9.19673 15.8419 9.19673 15.727C9.19673 15.612 9.22808 15.518 9.26639 15.518C9.30471 15.518 9.33606 15.4239 9.33606 15.309C9.33606 15.1941 9.3674 15.1 9.40572 15.1C9.44403 15.1 9.47538 15.006 9.47538 14.891C9.47538 14.7761 9.50673 14.682 9.54504 14.682C9.58336 14.682 9.61471 14.588 9.61471 14.4731C9.61471 14.3581 9.64605 14.2641 9.68437 14.2641C9.72268 14.2641 9.75403 14.17 9.75403 14.0551C9.75403 13.9401 9.78538 13.8461 9.82369 13.8461C9.86201 13.8461 9.89336 13.7834 9.89336 13.7068C9.89336 13.6301 9.9247 13.5674 9.96302 13.5674C10.0013 13.5674 10.0327 13.4734 10.0327 13.3585C10.0327 13.2435 10.064 13.1495 10.1023 13.1495C10.1407 13.1495 10.172 13.0554 10.172 12.9405C10.172 12.8255 10.2034 12.7315 10.2417 12.7315C10.28 12.7315 10.3113 12.6374 10.3113 12.5225C10.3113 12.4076 10.3427 12.3135 10.381 12.3135C10.4193 12.3135 10.4507 12.2195 10.4507 12.1045C10.4507 11.9896 10.482 11.8955 10.5203 11.8955C10.5586 11.8955 10.59 11.8328 10.59 11.7562C10.59 11.6796 10.6213 11.6169 10.6596 11.6169C10.698 11.6169 10.7293 11.5229 10.7293 11.4079C10.7293 11.293 10.7607 11.1989 10.799 11.1989C10.8373 11.1989 10.8686 11.1049 10.8686 10.9899C10.8686 10.875 10.9 10.7809 10.9383 10.7809C10.9766 10.7809 11.008 10.6869 11.008 10.572C11.008 10.457 11.0393 10.363 11.0776 10.363C11.1159 10.363 11.1473 10.3137 11.1473 10.2535C11.1473 10.1127 11.315 9.945 11.4558 9.945C11.516 9.945 11.5653 9.91365 11.5653 9.87533C11.5653 9.83702 11.628 9.80567 11.7046 9.80567C11.7812 9.80567 11.8439 9.77432 11.8439 9.73601C11.8439 9.69769 11.9066 9.66635 11.9832 9.66635C12.0599 9.66635 12.1226 9.635 12.1226 9.59668C12.1226 9.55837 12.1852 9.52702 12.2619 9.52702C12.3385 9.52702 12.4012 9.49567 12.4012 9.45736C12.4012 9.41904 12.4493 9.3877 12.508 9.3877C12.6467 9.3877 13.0978 8.93656 13.0978 8.79786C13.0978 8.73914 13.1292 8.69107 13.1675 8.69107C13.2058 8.69107 13.2372 8.62838 13.2372 8.55175C13.2372 8.47512 13.2685 8.41242 13.3068 8.41242C13.3466 8.41242 13.3765 8.20344 13.3765 7.92479C13.3765 7.64614 13.4064 7.43715 13.4461 7.43715C13.4845 7.43715 13.5158 7.3431 13.5158 7.22816C13.5158 7.11322 13.5472 7.01917 13.5855 7.01917C13.6238 7.01917 13.6551 6.95648 13.6551 6.87985C13.6551 6.80322 13.6865 6.74052 13.7248 6.74052C13.7631 6.74052 13.7945 6.69127 13.7945 6.63108C13.7945 6.4903 13.9622 6.32255 14.103 6.32255C14.1632 6.32255 14.2124 6.2912 14.2124 6.25289C14.2124 6.21457 14.3065 6.18322 14.4214 6.18322C14.5364 6.18322 14.6304 6.15188 14.6304 6.11356C14.6304 6.07525 14.6931 6.0439 14.7697 6.0439C14.8464 6.0439 14.9091 6.01255 14.9091 5.97424C14.9091 5.93592 15.0031 5.90457 15.118 5.90457C15.233 5.90457 15.327 5.87323 15.327 5.83491C15.327 5.7966 15.3897 5.76525 15.4664 5.76525C15.543 5.76525 15.6057 5.7339 15.6057 5.69559C15.6057 5.65727 15.6997 5.62592 15.8147 5.62592C15.9296 5.62592 16.0237 5.59458 16.0237 5.55626C16.0237 5.51795 16.0863 5.4866 16.163 5.4866C16.2396 5.4866 16.3023 5.45525 16.3023 5.41694C16.3023 5.37862 16.3963 5.34728 16.5113 5.34728C16.6262 5.34728 16.7203 5.31593 16.7203 5.27761C16.7203 5.2393 16.783 5.20795 16.8596 5.20795C16.9362 5.20795 16.9989 5.1766 16.9989 5.13829C16.9989 5.09997 17.093 5.06863 17.2079 5.06863C17.3229 5.06863 17.4169 5.03728 17.4169 4.99896C17.4169 4.96065 17.5423 4.9293 17.6955 4.9293C17.8488 4.9293 17.9742 4.89795 17.9742 4.85964C17.9742 4.82091 18.16 4.78998 18.3922 4.78998C18.6244 4.78998 18.8101 4.75905 18.8101 4.72031C18.8101 4.68158 18.9959 4.65065 19.2281 4.65065C19.4603 4.65065 19.6461 4.61972 19.6461 4.58099C19.6461 4.54226 19.8319 4.51133 20.0641 4.51133C20.2963 4.51133 20.482 4.4804 20.482 4.44166C20.482 4.40189 20.691 4.372 20.9697 4.372C21.2483 4.372 21.4573 4.34212 21.4573 4.30234C21.4573 4.26402 21.5758 4.23268 21.7206 4.23268C21.9039 4.23268 22.0143 4.27496 22.0843 4.372ZM32.3247 6.94951C32.3247 6.98783 32.2306 7.01917 32.1157 7.01917C32.0007 7.01917 31.9067 7.05052 31.9067 7.08884C31.9067 7.12715 31.8509 7.1585 31.7828 7.1585C31.7146 7.1585 31.6136 7.22119 31.5584 7.29782C31.5031 7.37445 31.4164 7.43715 31.3657 7.43715C31.2461 7.43715 30.9314 7.75181 30.9314 7.87142C30.9314 7.92214 30.8687 8.00887 30.7921 8.06411C30.7155 8.11935 30.6528 8.22029 30.6528 8.28849C30.6528 8.35662 30.6214 8.41242 30.5831 8.41242C30.5448 8.41242 30.5134 8.50647 30.5134 8.62141C30.5134 8.73635 30.4821 8.8304 30.4438 8.8304C30.402 8.8304 30.3741 9.10905 30.3741 9.52702C30.3741 9.945 30.402 10.2236 30.4438 10.2236C30.4821 10.2236 30.5134 10.3177 30.5134 10.4326C30.5134 10.5476 30.5448 10.6416 30.5831 10.6416C30.6214 10.6416 30.6528 10.6974 30.6528 10.7655C30.6528 10.8337 30.7155 10.9347 30.7921 10.9899C30.8687 11.0452 30.9314 11.1319 30.9314 11.1826C30.9314 11.3022 31.2461 11.6169 31.3657 11.6169C31.4164 11.6169 31.5031 11.6796 31.5584 11.7562C31.6136 11.8328 31.7146 11.8955 31.7828 11.8955C31.8509 11.8955 31.9067 11.9269 31.9067 11.9652C31.9067 12.0035 32.0007 12.0349 32.1157 12.0349C32.2306 12.0349 32.3247 12.0662 32.3247 12.1045C32.3247 12.1463 32.6033 12.1742 33.0213 12.1742C33.4393 12.1742 33.7179 12.1463 33.7179 12.1045C33.7179 12.0662 33.812 12.0349 33.9269 12.0349C34.0418 12.0349 34.1359 12.0035 34.1359 11.9652C34.1359 11.9269 34.1917 11.8955 34.2598 11.8955C34.328 11.8955 34.429 11.8328 34.4842 11.7562C34.5394 11.6796 34.6262 11.6169 34.6769 11.6169C34.7965 11.6169 35.1112 11.3022 35.1112 11.1826C35.1112 11.1319 35.1739 11.0452 35.2505 10.9899C35.3271 10.9347 35.3898 10.8337 35.3898 10.7655C35.3898 10.6974 35.4212 10.6416 35.4595 10.6416C35.4978 10.6416 35.5291 10.5476 35.5291 10.4326C35.5291 10.3177 35.5605 10.2236 35.5988 10.2236C35.6406 10.2236 35.6685 9.945 35.6685 9.52702C35.6685 9.10905 35.6406 8.8304 35.5988 8.8304C35.5605 8.8304 35.5291 8.73635 35.5291 8.62141C35.5291 8.50647 35.4978 8.41242 35.4595 8.41242C35.4212 8.41242 35.3898 8.35662 35.3898 8.28849C35.3898 8.22029 35.3271 8.11935 35.2505 8.06411C35.1739 8.00887 35.1112 7.92214 35.1112 7.87142C35.1112 7.75181 34.7965 7.43715 34.6769 7.43715C34.6262 7.43715 34.5394 7.37445 34.4842 7.29782C34.429 7.22119 34.328 7.1585 34.2598 7.1585C34.1917 7.1585 34.1359 7.12715 34.1359 7.08884C34.1359 7.05052 34.0418 7.01917 33.9269 7.01917C33.812 7.01917 33.7179 6.98783 33.7179 6.94951C33.7179 6.90771 33.4393 6.87985 33.0213 6.87985C32.6033 6.87985 32.3247 6.90771 32.3247 6.94951ZM16.9989 9.59668C16.9989 9.635 16.8422 9.66635 16.6506 9.66635C16.459 9.66635 16.3023 9.69769 16.3023 9.73601C16.3023 9.77432 16.2396 9.80567 16.163 9.80567C16.0863 9.80567 16.0237 9.83702 16.0237 9.87533C16.0237 9.91365 15.9296 9.945 15.8147 9.945C15.6997 9.945 15.6057 9.97634 15.6057 10.0147C15.6057 10.053 15.543 10.0843 15.4664 10.0843C15.3897 10.0843 15.327 10.1157 15.327 10.154C15.327 10.1923 15.2712 10.2236 15.2031 10.2236C15.1349 10.2236 15.034 10.2863 14.9787 10.363C14.9235 10.4396 14.8377 10.5023 14.7882 10.5023C14.6707 10.5023 13.5158 11.6572 13.5158 11.7747C13.5158 11.8242 13.4531 11.91 13.3765 11.9652C13.2998 12.0204 13.2372 12.1214 13.2372 12.1896C13.2372 12.2577 13.2058 12.3135 13.1675 12.3135C13.1292 12.3135 13.0978 12.3762 13.0978 12.4528C13.0978 12.5295 13.0665 12.5922 13.0282 12.5922C12.9899 12.5922 12.9585 12.6549 12.9585 12.7315C12.9585 12.8081 12.9272 12.8708 12.8888 12.8708C12.8505 12.8708 12.8192 12.9649 12.8192 13.0798C12.8192 13.1947 12.7878 13.2888 12.7495 13.2888C12.7112 13.2888 12.6799 13.4142 12.6799 13.5674C12.6799 13.7207 12.6485 13.8461 12.6102 13.8461C12.5669 13.8461 12.5405 14.2409 12.5405 14.891C12.5405 15.5412 12.5669 15.936 12.6102 15.936C12.6485 15.936 12.6799 16.0614 12.6799 16.2146C12.6799 16.3679 12.7112 16.4933 12.7495 16.4933C12.7878 16.4933 12.8192 16.5873 12.8192 16.7023C12.8192 16.8172 12.8505 16.9112 12.8888 16.9112C12.9272 16.9112 12.9585 16.9739 12.9585 17.0506C12.9585 17.1272 12.9899 17.1899 13.0282 17.1899C13.0665 17.1899 13.0978 17.2526 13.0978 17.3292C13.0978 17.4058 13.1292 17.4685 13.1675 17.4685C13.2058 17.4685 13.2372 17.5186 13.2372 17.5799C13.2372 17.6412 13.3312 17.7792 13.4461 17.8865C13.5611 17.9939 13.6551 18.1167 13.6551 18.1596C13.6551 18.2685 14.5382 19.1404 14.6486 19.1404C14.6983 19.1404 14.7841 19.2031 14.8394 19.2798C14.8946 19.3564 14.9956 19.4191 15.0638 19.4191C15.1319 19.4191 15.1877 19.4504 15.1877 19.4887C15.1877 19.5271 15.2504 19.5584 15.327 19.5584C15.4037 19.5584 15.4664 19.5898 15.4664 19.6281C15.4664 19.6664 15.529 19.6977 15.6057 19.6977C15.6823 19.6977 15.745 19.7291 15.745 19.7674C15.745 19.8057 15.8077 19.8371 15.8843 19.8371C15.961 19.8371 16.0237 19.8684 16.0237 19.9067C16.0237 19.945 16.1177 19.9764 16.2326 19.9764C16.3476 19.9764 16.4416 20.0077 16.4416 20.046C16.4416 20.0844 16.5984 20.1157 16.7899 20.1157C16.9815 20.1157 17.1382 20.1471 17.1382 20.1854C17.1382 20.2272 17.4169 20.255 17.8349 20.255C18.2528 20.255 18.5315 20.2272 18.5315 20.1854C18.5315 20.1471 18.6882 20.1157 18.8798 20.1157C19.0714 20.1157 19.2281 20.0844 19.2281 20.046C19.2281 20.0077 19.3222 19.9764 19.4371 19.9764C19.5521 19.9764 19.6461 19.945 19.6461 19.9067C19.6461 19.8684 19.7401 19.8371 19.8551 19.8371C19.97 19.8371 20.0641 19.8057 20.0641 19.7674C20.0641 19.7291 20.1268 19.6977 20.2034 19.6977C20.28 19.6977 20.3427 19.6664 20.3427 19.6281C20.3427 19.5898 20.3985 19.5584 20.4667 19.5584C20.5349 19.5584 20.6358 19.4957 20.691 19.4191C20.7463 19.3425 20.832 19.2798 20.8815 19.2798C21.0081 19.2798 22.2933 17.9807 22.2933 17.8526C22.2933 17.7946 22.3246 17.7472 22.3629 17.7472C22.4012 17.7472 22.4326 17.6914 22.4326 17.6233C22.4326 17.5551 22.4953 17.4541 22.5719 17.3989C22.6537 17.3399 22.7112 17.2185 22.7112 17.1048C22.7112 16.9984 22.7426 16.9112 22.7809 16.9112C22.8192 16.9112 22.8506 16.8485 22.8506 16.7719C22.8506 16.6953 22.8819 16.6326 22.9202 16.6326C22.9585 16.6326 22.9899 16.5072 22.9899 16.3539C22.9899 16.2007 23.0212 16.0753 23.0596 16.0753C23.0983 16.0753 23.1292 15.8895 23.1292 15.6573C23.1292 15.4251 23.1601 15.2393 23.1989 15.2393C23.2372 15.2393 23.2685 15.0826 23.2685 14.891C23.2685 14.6995 23.2372 14.5427 23.1989 14.5427C23.1591 14.5427 23.1292 14.3337 23.1292 14.0551C23.1292 13.7764 23.0993 13.5674 23.0596 13.5674C23.0212 13.5674 22.9899 13.4734 22.9899 13.3585C22.9899 13.2435 22.9585 13.1495 22.9202 13.1495C22.8819 13.1495 22.8506 13.0554 22.8506 12.9405C22.8506 12.8255 22.8192 12.7315 22.7809 12.7315C22.7426 12.7315 22.7112 12.6688 22.7112 12.5922C22.7112 12.5155 22.6799 12.4528 22.6416 12.4528C22.6033 12.4528 22.5719 12.397 22.5719 12.3289C22.5719 12.2607 22.5092 12.1598 22.4326 12.1045C22.356 12.0493 22.2933 11.9609 22.2933 11.9081C22.2933 11.8553 22.1992 11.7242 22.0843 11.6169C21.9693 11.5095 21.8753 11.3858 21.8753 11.3419C21.8753 11.2393 21.5574 10.9203 21.455 10.9203C21.412 10.9203 21.2563 10.7949 21.109 10.6416C20.9617 10.4884 20.7918 10.363 20.7313 10.363C20.6708 10.363 20.6214 10.3316 20.6214 10.2933C20.6214 10.255 20.5587 10.2236 20.482 10.2236C20.4054 10.2236 20.3427 10.1923 20.3427 10.154C20.3427 10.1157 20.28 10.0843 20.2034 10.0843C20.1268 10.0843 20.0641 10.053 20.0641 10.0147C20.0641 9.97634 20.0014 9.945 19.9247 9.945C19.8481 9.945 19.7854 9.91365 19.7854 9.87533C19.7854 9.83702 19.6914 9.80567 19.5764 9.80567C19.4615 9.80567 19.3674 9.77432 19.3674 9.73601C19.3674 9.69769 19.2107 9.66635 19.0191 9.66635C18.8276 9.66635 18.6708 9.635 18.6708 9.59668C18.6708 9.55412 18.3457 9.52702 17.8349 9.52702C17.324 9.52702 16.9989 9.55412 16.9989 9.59668ZM48.6257 9.59668C48.6257 9.635 48.5385 9.66635 48.4321 9.66635C48.3184 9.66635 48.197 9.72389 48.138 9.80567C48.0828 9.8823 47.9953 9.945 47.9435 9.945C47.816 9.945 47.6504 10.1192 47.6504 10.2535C47.6504 10.3137 47.6191 10.363 47.5807 10.363C47.5424 10.363 47.5111 10.4257 47.5111 10.5023C47.5111 10.5789 47.4797 10.6416 47.4414 10.6416C47.4031 10.6416 47.3718 10.7357 47.3718 10.8506C47.3718 10.9656 47.3404 11.0596 47.3021 11.0596C47.2638 11.0596 47.2324 11.185 47.2324 11.3382C47.2324 11.4915 47.2638 11.6169 47.3021 11.6169C47.3404 11.6169 47.3718 11.7109 47.3718 11.8259C47.3718 11.9408 47.4031 12.0349 47.4414 12.0349C47.4797 12.0349 47.5111 12.0827 47.5111 12.1412C47.5111 12.2795 48.1024 12.8708 48.2407 12.8708C48.2992 12.8708 48.347 12.9022 48.347 12.9405C48.347 12.9788 48.4724 13.0101 48.6257 13.0101C48.7789 13.0101 48.9043 13.0415 48.9043 13.0798C48.9043 13.1181 48.9984 13.1495 49.1133 13.1495C49.2283 13.1495 49.3223 13.1181 49.3223 13.0798C49.3223 13.0415 49.4163 13.0101 49.5313 13.0101C49.6462 13.0101 49.7403 12.9788 49.7403 12.9405C49.7403 12.9022 49.803 12.8708 49.8796 12.8708C49.9562 12.8708 50.0189 12.8395 50.0189 12.8012C50.0189 12.7628 50.0682 12.7315 50.1284 12.7315C50.2627 12.7315 50.4369 12.5659 50.4369 12.4384C50.4369 12.3866 50.4996 12.2991 50.5762 12.2439C50.658 12.1849 50.7155 12.0635 50.7155 11.9498C50.7155 11.8434 50.7469 11.7562 50.7852 11.7562C50.825 11.7562 50.8549 11.5472 50.8549 11.2686C50.8549 10.9899 50.825 10.7809 50.7852 10.7809C50.7469 10.7809 50.7155 10.7182 50.7155 10.6416C50.7155 10.565 50.6842 10.5023 50.6459 10.5023C50.6076 10.5023 50.5762 10.4542 50.5762 10.3955C50.5762 10.2568 50.1251 9.80567 49.9864 9.80567C49.9277 9.80567 49.8796 9.77432 49.8796 9.73601C49.8796 9.69769 49.8169 9.66635 49.7403 9.66635C49.6636 9.66635 49.6009 9.635 49.6009 9.59668C49.6009 9.55691 49.392 9.52702 49.1133 9.52702C48.8347 9.52702 48.6257 9.55691 48.6257 9.59668ZM18.5315 13.2191C18.5315 13.2574 18.5792 13.2888 18.6375 13.2888C18.8199 13.2888 19.5068 14.0307 19.5068 14.2277C19.5068 14.3243 19.5381 14.4034 19.5764 14.4034C19.6162 14.4034 19.6461 14.6124 19.6461 14.891C19.6461 15.1697 19.6162 15.3787 19.5764 15.3787C19.5381 15.3787 19.5068 15.4414 19.5068 15.518C19.5068 15.5946 19.4754 15.6573 19.4371 15.6573C19.3988 15.6573 19.3674 15.7052 19.3674 15.7636C19.3674 15.9433 18.7649 16.4933 18.5681 16.4933C18.4714 16.4933 18.3922 16.5246 18.3922 16.5629C18.3922 16.6035 18.16 16.6326 17.8349 16.6326C17.5098 16.6326 17.2776 16.6035 17.2776 16.5629C17.2776 16.5246 17.2149 16.4933 17.1382 16.4933C17.0616 16.4933 16.9989 16.4619 16.9989 16.4236C16.9989 16.3853 16.9505 16.3539 16.8913 16.3539C16.7596 16.3539 16.4416 16.0468 16.4416 15.9197C16.4416 15.8689 16.3789 15.7822 16.3023 15.727C16.2053 15.657 16.163 15.5466 16.163 15.3633C16.163 15.2185 16.1316 15.1 16.0933 15.1C16.055 15.1 16.0237 15.006 16.0237 14.891C16.0237 14.7761 16.055 14.682 16.0933 14.682C16.1316 14.682 16.163 14.5566 16.163 14.4034C16.163 14.2501 16.1943 14.1247 16.2326 14.1247C16.271 14.1247 16.3023 14.0769 16.3023 14.0184C16.3023 13.9599 16.4425 13.7718 16.614 13.6005C16.7853 13.429 16.9734 13.2888 17.0319 13.2888C17.0904 13.2888 17.1382 13.2574 17.1382 13.2191C17.1382 13.1773 17.4169 13.1495 17.8349 13.1495C18.2528 13.1495 18.5315 13.1773 18.5315 13.2191ZM44.8639 13.2191C44.8639 13.2574 44.8012 13.2888 44.7246 13.2888C44.6479 13.2888 44.5853 13.3201 44.5853 13.3585C44.5853 13.3968 44.536 13.4281 44.4758 13.4281C44.3415 13.4281 44.1673 13.5937 44.1673 13.7213C44.1673 13.773 44.1046 13.8605 44.028 13.9158C43.9513 13.971 43.8886 14.0719 43.8886 14.1401C43.8886 14.2083 43.8573 14.2641 43.819 14.2641C43.7777 14.2641 43.7493 14.5195 43.7493 14.891C43.7493 15.2625 43.7777 15.518 43.819 15.518C43.8573 15.518 43.8886 15.5657 43.8886 15.624C43.8886 15.7619 44.6199 16.4933 44.7579 16.4933C44.8162 16.4933 44.8639 16.5246 44.8639 16.5629C44.8639 16.6042 45.1194 16.6326 45.4909 16.6326C45.8624 16.6326 46.1178 16.6042 46.1178 16.5629C46.1178 16.5246 46.1736 16.4933 46.2418 16.4933C46.31 16.4933 46.4109 16.4306 46.4661 16.3539C46.5214 16.2773 46.6089 16.2146 46.6606 16.2146C46.7882 16.2146 46.9538 16.0404 46.9538 15.9061C46.9538 15.8459 46.9851 15.7966 47.0234 15.7966C47.0618 15.7966 47.0931 15.7339 47.0931 15.6573C47.0931 15.5807 47.1244 15.518 47.1628 15.518C47.2041 15.518 47.2324 15.2625 47.2324 14.891C47.2324 14.5195 47.2041 14.2641 47.1628 14.2641C47.1244 14.2641 47.0931 14.2014 47.0931 14.1247C47.0931 14.0481 47.0618 13.9854 47.0234 13.9854C46.9851 13.9854 46.9538 13.937 46.9538 13.8778C46.9538 13.7384 46.6435 13.4281 46.5041 13.4281C46.4449 13.4281 46.3965 13.3968 46.3965 13.3585C46.3965 13.3201 46.3338 13.2888 46.2572 13.2888C46.1805 13.2888 46.1178 13.2574 46.1178 13.2191C46.1178 13.1778 45.8624 13.1495 45.4909 13.1495C45.1194 13.1495 44.8639 13.1778 44.8639 13.2191ZM52.2481 13.2191C52.2481 13.2574 52.1541 13.2888 52.0391 13.2888C51.9242 13.2888 51.8301 13.3201 51.8301 13.3585C51.8301 13.3968 51.7821 13.4281 51.7234 13.4281C51.5847 13.4281 51.1335 13.8793 51.1335 14.018C51.1335 14.0767 51.1022 14.1247 51.0639 14.1247C51.0255 14.1247 50.9942 14.1874 50.9942 14.2641C50.9942 14.3407 50.9628 14.4034 50.9245 14.4034C50.8839 14.4034 50.8549 14.6356 50.8549 14.9607C50.8549 15.2858 50.8839 15.518 50.9245 15.518C50.9628 15.518 50.9942 15.5807 50.9942 15.6573C50.9942 15.7339 51.0255 15.7966 51.0639 15.7966C51.1022 15.7966 51.1335 15.8451 51.1335 15.9043C51.1335 16.0359 51.4407 16.3539 51.5678 16.3539C51.6185 16.3539 51.7052 16.4166 51.7605 16.4933C51.8195 16.575 51.9408 16.6326 52.0545 16.6326C52.161 16.6326 52.2481 16.6639 52.2481 16.7023C52.2481 16.7406 52.4049 16.7719 52.5964 16.7719C52.788 16.7719 52.9447 16.7406 52.9447 16.7023C52.9447 16.6639 53.0388 16.6326 53.1537 16.6326C53.2687 16.6326 53.3627 16.6012 53.3627 16.5629C53.3627 16.5246 53.4106 16.4933 53.469 16.4933C53.6073 16.4933 54.1987 15.9019 54.1987 15.7636C54.1987 15.7052 54.23 15.6573 54.2683 15.6573C54.3066 15.6573 54.338 15.5319 54.338 15.3787C54.338 15.2254 54.3693 15.1 54.4077 15.1C54.446 15.1 54.4773 15.006 54.4773 14.891C54.4773 14.7761 54.446 14.682 54.4077 14.682C54.3693 14.682 54.338 14.588 54.338 14.4731C54.338 14.3581 54.3066 14.2641 54.2683 14.2641C54.23 14.2641 54.1987 14.2163 54.1987 14.158C54.1987 13.9757 53.4568 13.2888 53.2598 13.2888C53.1631 13.2888 53.0841 13.2574 53.0841 13.2191C53.0841 13.1804 52.8983 13.1495 52.6661 13.1495C52.4339 13.1495 52.2481 13.1804 52.2481 13.2191ZM29.8168 14.0551C29.8168 14.0934 29.7541 14.1247 29.6775 14.1247C29.6009 14.1247 29.5382 14.1561 29.5382 14.1944C29.5382 14.2327 29.4901 14.2641 29.4314 14.2641C29.3726 14.2641 29.2158 14.3727 29.0831 14.5056C28.9502 14.6384 28.8415 14.7951 28.8415 14.8539C28.8415 14.9126 28.8102 14.9607 28.7719 14.9607C28.7336 14.9607 28.7022 15.0234 28.7022 15.1C28.7022 15.1766 28.6709 15.2393 28.6326 15.2393C28.5928 15.2393 28.5629 15.4483 28.5629 15.727C28.5629 16.0056 28.5928 16.2146 28.6326 16.2146C28.6709 16.2146 28.7022 16.3018 28.7022 16.4082C28.7022 16.5219 28.7598 16.6432 28.8415 16.7023C28.9182 16.7575 28.9809 16.845 28.9809 16.8967C28.9809 17.0243 29.1551 17.1899 29.2894 17.1899C29.3496 17.1899 29.3988 17.2212 29.3988 17.2596C29.3988 17.2979 29.4615 17.3292 29.5382 17.3292C29.6148 17.3292 29.6775 17.3606 29.6775 17.3989C29.6775 17.4372 29.7715 17.4685 29.8865 17.4685C30.0014 17.4685 30.0955 17.4999 30.0955 17.5382C30.0955 17.5765 30.1895 17.6079 30.3045 17.6079C30.4194 17.6079 30.5134 17.5765 30.5134 17.5382C30.5134 17.4999 30.6388 17.4685 30.7921 17.4685C30.9453 17.4685 31.0707 17.4372 31.0707 17.3989C31.0707 17.3606 31.1186 17.3292 31.177 17.3292C31.3153 17.3292 31.9067 16.7378 31.9067 16.5996C31.9067 16.5411 31.938 16.4933 31.9764 16.4933C32.0147 16.4933 32.046 16.3679 32.046 16.2146C32.046 16.0614 32.0774 15.936 32.1157 15.936C32.154 15.936 32.1853 15.8419 32.1853 15.727C32.1853 15.612 32.154 15.518 32.1157 15.518C32.0774 15.518 32.046 15.4239 32.046 15.309C32.046 15.1941 32.0147 15.1 31.9764 15.1C31.938 15.1 31.9067 15.0373 31.9067 14.9607C31.9067 14.8841 31.8753 14.8214 31.837 14.8214C31.7987 14.8214 31.7674 14.7721 31.7674 14.7119C31.7674 14.5776 31.6018 14.4034 31.4742 14.4034C31.4225 14.4034 31.335 14.3407 31.2797 14.2641C31.2207 14.1823 31.0994 14.1247 30.9857 14.1247C30.8792 14.1247 30.7921 14.0934 30.7921 14.0551C30.7921 14.0153 30.5831 13.9854 30.3045 13.9854C30.0258 13.9854 29.8168 14.0153 29.8168 14.0551ZM35.2505 14.0551C35.2505 14.0934 35.1633 14.1247 35.0569 14.1247C34.9432 14.1247 34.8219 14.1823 34.7628 14.2641C34.7076 14.3407 34.6201 14.4034 34.5684 14.4034C34.4408 14.4034 34.2752 14.5776 34.2752 14.7119C34.2752 14.7721 34.2439 14.8214 34.2055 14.8214C34.1672 14.8214 34.1359 14.8841 34.1359 14.9607C34.1359 15.0373 34.1045 15.1 34.0662 15.1C34.0279 15.1 33.9966 15.1941 33.9966 15.309C33.9966 15.4239 33.9652 15.518 33.9269 15.518C33.8886 15.518 33.8572 15.6434 33.8572 15.7966C33.8572 15.9499 33.8886 16.0753 33.9269 16.0753C33.9652 16.0753 33.9966 16.1693 33.9966 16.2843C33.9966 16.3992 34.0279 16.4933 34.0662 16.4933C34.1045 16.4933 34.1359 16.5411 34.1359 16.5996C34.1359 16.7378 34.7273 17.3292 34.8655 17.3292C34.924 17.3292 34.9718 17.3606 34.9718 17.3989C34.9718 17.4372 35.0972 17.4685 35.2505 17.4685C35.4037 17.4685 35.5291 17.4999 35.5291 17.5382C35.5291 17.5765 35.6232 17.6079 35.7381 17.6079C35.8531 17.6079 35.9471 17.5765 35.9471 17.5382C35.9471 17.4999 36.0412 17.4685 36.1561 17.4685C36.271 17.4685 36.3651 17.4372 36.3651 17.3989C36.3651 17.3606 36.4278 17.3292 36.5044 17.3292C36.581 17.3292 36.6437 17.2979 36.6437 17.2596C36.6437 17.2212 36.693 17.1899 36.7532 17.1899C36.8875 17.1899 37.0617 17.0243 37.0617 16.8967C37.0617 16.845 37.1244 16.7575 37.201 16.7023C37.2828 16.6432 37.3404 16.5219 37.3404 16.4082C37.3404 16.3018 37.3717 16.2146 37.41 16.2146C37.4498 16.2146 37.4797 16.0056 37.4797 15.727C37.4797 15.4483 37.4498 15.2393 37.41 15.2393C37.3717 15.2393 37.3404 15.1766 37.3404 15.1C37.3404 15.0234 37.309 14.9607 37.2707 14.9607C37.2324 14.9607 37.201 14.9126 37.201 14.8539C37.201 14.7152 36.7499 14.2641 36.6112 14.2641C36.5525 14.2641 36.5044 14.2327 36.5044 14.1944C36.5044 14.1561 36.4417 14.1247 36.3651 14.1247C36.2885 14.1247 36.2258 14.0934 36.2258 14.0551C36.2258 14.0153 36.0168 13.9854 35.7381 13.9854C35.4595 13.9854 35.2505 14.0153 35.2505 14.0551ZM48.6257 16.7023C48.6257 16.7406 48.5466 16.7719 48.45 16.7719C48.253 16.7719 47.5111 17.4588 47.5111 17.6412C47.5111 17.6995 47.4797 17.7472 47.4414 17.7472C47.4031 17.7472 47.3718 17.8412 47.3718 17.9562C47.3718 18.0711 47.3404 18.1652 47.3021 18.1652C47.2638 18.1652 47.2324 18.2906 47.2324 18.4438C47.2324 18.5971 47.2638 18.7225 47.3021 18.7225C47.3404 18.7225 47.3718 18.8165 47.3718 18.9315C47.3718 19.0464 47.4031 19.1404 47.4414 19.1404C47.4797 19.1404 47.5111 19.1883 47.5111 19.2467C47.5111 19.385 48.1024 19.9764 48.2407 19.9764C48.2992 19.9764 48.347 20.0077 48.347 20.046C48.347 20.0844 48.4097 20.1157 48.4863 20.1157C48.563 20.1157 48.6257 20.1471 48.6257 20.1854C48.6257 20.2241 48.8115 20.255 49.0436 20.255C49.2758 20.255 49.4616 20.2241 49.4616 20.1854C49.4616 20.1471 49.5488 20.1157 49.6552 20.1157C49.7689 20.1157 49.8903 20.0582 49.9493 19.9764C50.0045 19.8998 50.0912 19.8371 50.1419 19.8371C50.2691 19.8371 50.5762 19.5191 50.5762 19.3874C50.5762 19.3282 50.6076 19.2798 50.6459 19.2798C50.6842 19.2798 50.7155 19.1857 50.7155 19.0708C50.7155 18.9558 50.7469 18.8618 50.7852 18.8618C50.8239 18.8618 50.8549 18.676 50.8549 18.4438C50.8549 18.2116 50.8239 18.0258 50.7852 18.0258C50.7469 18.0258 50.7155 17.9318 50.7155 17.8169C50.7155 17.7019 50.6842 17.6079 50.6459 17.6079C50.6076 17.6079 50.5762 17.5598 50.5762 17.5011C50.5762 17.3624 50.1251 16.9112 49.9864 16.9112C49.9277 16.9112 49.8796 16.8799 49.8796 16.8416C49.8796 16.8033 49.7856 16.7719 49.6706 16.7719C49.5557 16.7719 49.4616 16.7406 49.4616 16.7023C49.4616 16.6635 49.2758 16.6326 49.0436 16.6326C48.8115 16.6326 48.6257 16.6635 48.6257 16.7023ZM24.5225 18.5135C24.5225 18.5518 24.4434 18.5831 24.3468 18.5831C24.1498 18.5831 23.4079 19.27 23.4079 19.4524C23.4079 19.5107 23.3765 19.5584 23.3382 19.5584C23.2946 19.5584 23.2685 19.9896 23.2685 20.7128C23.2685 21.6204 23.2473 21.8885 23.169 21.9667C23.0908 22.045 22.8227 22.0663 21.9151 22.0663C21.1919 22.0663 20.7607 22.0923 20.7607 22.1359C20.7607 22.1742 20.713 22.2056 20.6547 22.2056C20.4723 22.2056 19.7854 22.9475 19.7854 23.1445C19.7854 23.2411 19.7541 23.3202 19.7158 23.3202C19.676 23.3202 19.6461 23.5292 19.6461 23.8078C19.6461 24.0865 19.676 24.2955 19.7158 24.2955C19.7541 24.2955 19.7854 24.3582 19.7854 24.4348C19.7854 24.5114 19.8168 24.5741 19.8551 24.5741C19.8934 24.5741 19.9247 24.622 19.9247 24.6804C19.9247 24.8601 20.5273 25.4101 20.7241 25.4101C20.8208 25.4101 20.9 25.4414 20.9 25.4797C20.9 25.5232 21.308 25.5494 21.9847 25.5494C22.832 25.5494 23.0913 25.5712 23.169 25.6489C23.2473 25.7272 23.2685 25.9952 23.2685 26.9029C23.2685 27.626 23.2946 28.0572 23.3382 28.0572C23.3765 28.0572 23.4079 28.1051 23.4079 28.1635C23.4079 28.3018 23.9992 28.8932 24.1375 28.8932C24.196 28.8932 24.2438 28.9245 24.2438 28.9628C24.2438 29.0012 24.3379 29.0325 24.4528 29.0325C24.5677 29.0325 24.6618 29.0639 24.6618 29.1022C24.6618 29.1405 24.8185 29.1718 25.0101 29.1718C25.2017 29.1718 25.3584 29.1405 25.3584 29.1022C25.3584 29.0639 25.4525 29.0325 25.5674 29.0325C25.6823 29.0325 25.7764 29.0012 25.7764 28.9628C25.7764 28.9245 25.8245 28.8932 25.8832 28.8932C26.0219 28.8932 26.473 28.442 26.473 28.3033C26.473 28.2446 26.5044 28.1966 26.5427 28.1966C26.581 28.1966 26.6123 28.1339 26.6123 28.0572C26.6123 27.9806 26.6437 27.9179 26.682 27.9179C26.7257 27.9179 26.7517 27.4767 26.7517 26.7336V25.5494H27.9359C28.679 25.5494 29.1202 25.5234 29.1202 25.4797C29.1202 25.4414 29.1829 25.4101 29.2595 25.4101C29.3361 25.4101 29.3988 25.3787 29.3988 25.3404C29.3988 25.3021 29.4469 25.2707 29.5056 25.2707C29.6443 25.2707 30.0955 24.8196 30.0955 24.6809C30.0955 24.6222 30.1268 24.5741 30.1651 24.5741C30.2034 24.5741 30.2348 24.5114 30.2348 24.4348C30.2348 24.3582 30.2661 24.2955 30.3045 24.2955C30.3442 24.2955 30.3741 24.0865 30.3741 23.8078C30.3741 23.5292 30.3442 23.3202 30.3045 23.3202C30.2661 23.3202 30.2348 23.2575 30.2348 23.1809C30.2348 23.1042 30.2034 23.0415 30.1651 23.0415C30.1268 23.0415 30.0955 22.9937 30.0955 22.9352C30.0955 22.7969 29.5041 22.2056 29.3658 22.2056C29.3074 22.2056 29.2595 22.1742 29.2595 22.1359C29.2595 22.0923 28.8283 22.0663 28.1051 22.0663C27.1975 22.0663 26.9294 22.045 26.8512 21.9667C26.7735 21.889 26.7517 21.6297 26.7517 20.7825C26.7517 20.1058 26.7255 19.6977 26.682 19.6977C26.6437 19.6977 26.6123 19.6185 26.6123 19.5218C26.6123 19.325 26.0624 18.7225 25.8827 18.7225C25.8243 18.7225 25.7764 18.6911 25.7764 18.6528C25.7764 18.6145 25.7137 18.5831 25.6371 18.5831C25.5604 18.5831 25.4977 18.5518 25.4977 18.5135C25.4977 18.4737 25.2888 18.4438 25.0101 18.4438C24.7315 18.4438 24.5225 18.4737 24.5225 18.5135ZM40.1269 18.5135C40.1269 18.5518 40.0015 18.5831 39.8482 18.5831C39.6949 18.5831 39.5696 18.6145 39.5696 18.6528C39.5696 18.6911 39.4755 18.7225 39.3606 18.7225C39.2456 18.7225 39.1516 18.7538 39.1516 18.7921C39.1516 18.8304 39.0889 18.8618 39.0123 18.8618C38.9356 18.8618 38.8729 18.8931 38.8729 18.9315C38.8729 18.9698 38.8102 19.0011 38.7336 19.0011C38.657 19.0011 38.5943 19.0325 38.5943 19.0708C38.5943 19.1091 38.5316 19.1404 38.455 19.1404C38.3783 19.1404 38.3156 19.1718 38.3156 19.2101C38.3156 19.2484 38.2598 19.2798 38.1917 19.2798C38.1235 19.2798 38.0226 19.3425 37.9673 19.4191C37.9121 19.4957 37.8261 19.5584 37.7763 19.5584C37.6656 19.5584 36.9224 20.2907 36.9224 20.3997C36.9224 20.4426 36.8283 20.5657 36.7134 20.673C36.5985 20.7804 36.5044 20.9184 36.5044 20.9796C36.5044 21.0409 36.4731 21.091 36.4347 21.091C36.3964 21.091 36.3651 21.1537 36.3651 21.2303C36.3651 21.3069 36.3337 21.3696 36.2954 21.3696C36.2571 21.3696 36.2258 21.4323 36.2258 21.509C36.2258 21.5856 36.1944 21.6483 36.1561 21.6483C36.1178 21.6483 36.0864 21.711 36.0864 21.7876C36.0864 21.8642 36.0551 21.9269 36.0168 21.9269C35.9785 21.9269 35.9471 22.021 35.9471 22.1359C35.9471 22.2509 35.9158 22.3449 35.8774 22.3449C35.8387 22.3449 35.8078 22.5307 35.8078 22.7629C35.8078 22.9951 35.7769 23.1809 35.7381 23.1809C35.6968 23.1809 35.6685 23.4363 35.6685 23.8078C35.6685 24.1793 35.6968 24.4348 35.7381 24.4348C35.7764 24.4348 35.8078 24.5915 35.8078 24.7831C35.8078 24.9747 35.8391 25.1314 35.8774 25.1314C35.9158 25.1314 35.9471 25.2568 35.9471 25.4101C35.9471 25.5633 35.9785 25.6887 36.0168 25.6887C36.0551 25.6887 36.0864 25.7514 36.0864 25.828C36.0864 25.9047 36.1178 25.9674 36.1561 25.9674C36.1944 25.9674 36.2258 26.0301 36.2258 26.1067C36.2258 26.1833 36.2571 26.246 36.2954 26.246C36.3337 26.246 36.3651 26.3018 36.3651 26.3699C36.3651 26.4381 36.4278 26.5391 36.5044 26.5943C36.581 26.6496 36.6437 26.738 36.6437 26.7908C36.6437 26.8435 36.7378 26.9746 36.8527 27.082C36.9677 27.1893 37.0617 27.313 37.0617 27.3569C37.0617 27.4603 37.38 27.7786 37.4834 27.7786C37.5273 27.7786 37.651 27.8726 37.7583 27.9876C37.8657 28.1025 37.9968 28.1966 38.0495 28.1966C38.1023 28.1966 38.1907 28.2593 38.246 28.3359C38.3012 28.4125 38.4022 28.4752 38.4704 28.4752C38.5385 28.4752 38.5943 28.5066 38.5943 28.5449C38.5943 28.5832 38.657 28.6145 38.7336 28.6145C38.8102 28.6145 38.8729 28.6459 38.8729 28.6842C38.8729 28.7225 38.9356 28.7539 39.0123 28.7539C39.0889 28.7539 39.1516 28.7852 39.1516 28.8235C39.1516 28.8618 39.277 28.8932 39.4302 28.8932C39.5835 28.8932 39.7089 28.9245 39.7089 28.9628C39.7089 29.0012 39.8656 29.0325 40.0572 29.0325C40.2488 29.0325 40.4055 29.0639 40.4055 29.1022C40.4055 29.1435 40.661 29.1718 41.0325 29.1718C41.404 29.1718 41.6594 29.1435 41.6594 29.1022C41.6594 29.0639 41.8162 29.0325 42.0077 29.0325C42.1993 29.0325 42.3561 29.0012 42.3561 28.9628C42.3561 28.9245 42.4814 28.8932 42.6347 28.8932C42.788 28.8932 42.9134 28.8618 42.9134 28.8235C42.9134 28.7852 42.9761 28.7539 43.0527 28.7539C43.1293 28.7539 43.192 28.7225 43.192 28.6842C43.192 28.6459 43.2547 28.6145 43.3313 28.6145C43.408 28.6145 43.4707 28.5832 43.4707 28.5449C43.4707 28.5066 43.5333 28.4752 43.61 28.4752C43.6866 28.4752 43.7493 28.4439 43.7493 28.4055C43.7493 28.3672 43.7994 28.3359 43.8607 28.3359C43.9219 28.3359 44.0599 28.2418 44.1673 28.1269C44.2746 28.0119 44.3978 27.9179 44.4409 27.9179C44.5429 27.9179 45.1426 27.3182 45.1426 27.2163C45.1426 27.1731 45.2366 27.05 45.3515 26.9426C45.4665 26.8353 45.5605 26.6973 45.5605 26.636C45.5605 26.5747 45.5919 26.5247 45.6302 26.5247C45.6685 26.5247 45.6999 26.462 45.6999 26.3853C45.6999 26.3087 45.7312 26.246 45.7695 26.246C45.8078 26.246 45.8392 26.1833 45.8392 26.1067C45.8392 26.0301 45.8705 25.9674 45.9088 25.9674C45.9472 25.9674 45.9785 25.9047 45.9785 25.828C45.9785 25.7514 46.0098 25.6887 46.0482 25.6887C46.0865 25.6887 46.1178 25.5947 46.1178 25.4797C46.1178 25.3648 46.1492 25.2707 46.1875 25.2707C46.2258 25.2707 46.2572 25.1453 46.2572 24.9921C46.2572 24.8388 46.2885 24.7134 46.3268 24.7134C46.3697 24.7134 46.3965 24.3651 46.3965 23.8078C46.3965 23.2505 46.3697 22.9022 46.3268 22.9022C46.2885 22.9022 46.2572 22.7768 46.2572 22.6236C46.2572 22.4703 46.2258 22.3449 46.1875 22.3449C46.1492 22.3449 46.1178 22.2509 46.1178 22.1359C46.1178 22.021 46.0865 21.9269 46.0482 21.9269C46.0098 21.9269 45.9785 21.8329 45.9785 21.7179C45.9785 21.603 45.9472 21.509 45.9088 21.509C45.8705 21.509 45.8392 21.4532 45.8392 21.385C45.8392 21.3168 45.7765 21.2159 45.6999 21.1606C45.6232 21.1054 45.5605 21.0114 45.5605 20.9517C45.5605 20.892 45.4978 20.7979 45.4212 20.7427C45.3446 20.6874 45.2819 20.6015 45.2819 20.5519C45.2819 20.4341 44.4062 19.5584 44.2884 19.5584C44.2388 19.5584 44.1529 19.4957 44.0976 19.4191C44.0424 19.3425 43.9483 19.2798 43.8886 19.2798C43.8289 19.2798 43.7349 19.2171 43.6796 19.1404C43.6244 19.0638 43.5235 19.0011 43.4553 19.0011C43.3871 19.0011 43.3313 18.9698 43.3313 18.9315C43.3313 18.8931 43.2373 18.8618 43.1223 18.8618C43.0074 18.8618 42.9134 18.8304 42.9134 18.7921C42.9134 18.7538 42.8193 18.7225 42.7044 18.7225C42.5894 18.7225 42.4954 18.6911 42.4954 18.6528C42.4954 18.6145 42.37 18.5831 42.2167 18.5831C42.0635 18.5831 41.9381 18.5518 41.9381 18.5135C41.9381 18.4706 41.5898 18.4438 41.0325 18.4438C40.4752 18.4438 40.1269 18.4706 40.1269 18.5135ZM41.6594 22.1359C41.6594 22.1742 41.7221 22.2056 41.7988 22.2056C41.8754 22.2056 41.9381 22.2369 41.9381 22.2752C41.9381 22.3136 41.9865 22.3449 42.0457 22.3449C42.1851 22.3449 42.4954 22.6552 42.4954 22.7946C42.4954 22.8538 42.5267 22.9022 42.565 22.9022C42.6034 22.9022 42.6347 22.9649 42.6347 23.0415C42.6347 23.1182 42.6661 23.1809 42.7044 23.1809C42.7457 23.1809 42.774 23.4363 42.774 23.8078C42.774 24.1793 42.7457 24.4348 42.7044 24.4348C42.6661 24.4348 42.6347 24.4906 42.6347 24.5587C42.6347 24.6269 42.572 24.7279 42.4954 24.7831C42.4188 24.8383 42.3561 24.9393 42.3561 25.0075C42.3561 25.0799 42.3045 25.1314 42.2321 25.1314C42.1639 25.1314 42.063 25.1941 42.0077 25.2707C41.9525 25.3474 41.8516 25.4101 41.7834 25.4101C41.7152 25.4101 41.6594 25.4414 41.6594 25.4797C41.6594 25.521 41.404 25.5494 41.0325 25.5494C40.661 25.5494 40.4055 25.521 40.4055 25.4797C40.4055 25.4414 40.3578 25.4101 40.2995 25.4101C40.1615 25.4101 39.4302 24.6787 39.4302 24.5408C39.4302 24.4825 39.3989 24.4348 39.3606 24.4348C39.3193 24.4348 39.2909 24.1793 39.2909 23.8078C39.2909 23.4363 39.3193 23.1809 39.3606 23.1809C39.3989 23.1809 39.4302 23.1251 39.4302 23.0569C39.4302 22.9887 39.4929 22.8878 39.5696 22.8325C39.6462 22.7773 39.7089 22.6764 39.7089 22.6082C39.7089 22.5358 39.7604 22.4842 39.8328 22.4842C39.901 22.4842 40.002 22.4215 40.0572 22.3449C40.1124 22.2683 40.2134 22.2056 40.2816 22.2056C40.3497 22.2056 40.4055 22.1742 40.4055 22.1359C40.4055 22.0946 40.661 22.0663 41.0325 22.0663C41.404 22.0663 41.6594 22.0946 41.6594 22.1359Z" fill="#359BE4"/>
</svg>
