<svg width="29" height="21" viewBox="0 0 29 21" fill="none" xmlns="http://www.w3.org/2000/svg">
<path d="M28.3374 3.88188C28.1747 3.27599 27.8558 2.72345 27.4124 2.27956C26.9691 1.83568 26.417 1.51601 25.8113 1.35257C23.5818 0.75293 14.6447 0.75293 14.6447 0.75293C14.6447 0.75293 5.70754 0.75293 3.47804 1.34938C2.87209 1.5123 2.31967 1.83178 1.87627 2.27575C1.43286 2.71972 1.11407 3.27254 0.951915 3.87869C0.355469 6.11138 0.355469 10.7681 0.355469 10.7681C0.355469 10.7681 0.355469 15.4249 0.951915 17.6544C1.28044 18.8855 2.25006 19.8552 3.47804 20.1837C5.70754 20.7833 14.6447 20.7833 14.6447 20.7833C14.6447 20.7833 23.5818 20.7833 25.8113 20.1837C27.0425 19.8552 28.0089 18.8855 28.3374 17.6544C28.9339 15.4249 28.9339 10.7681 28.9339 10.7681C28.9339 10.7681 28.9339 6.11138 28.3374 3.88188ZM11.806 15.0421V6.49412L19.2057 10.7362L11.806 15.0421Z" fill="#4290FC"/>
</svg>
